<svg width="2478" height="347" viewBox="0 0 2478 347" fill="none" xmlns="http://www.w3.org/2000/svg">
<mask id="path-1-outside-1_577_53" maskUnits="userSpaceOnUse" x="0.15625" y="75.4248" width="1316" height="272" fill="black">
<rect fill="white" x="0.15625" y="75.4248" width="1316" height="272"/>
<path d="M79.9394 151.957C85.6088 145.621 92.6956 140.368 101.2 136.2C109.871 131.864 119.292 129.696 129.464 129.696C139.802 129.696 148.89 131.948 156.727 136.45C164.731 140.785 170.901 147.122 175.236 155.459C179.571 163.796 181.739 173.551 181.739 184.723C181.739 189.893 181.239 195.228 180.238 200.731C177.737 214.905 172.735 227.494 165.231 238.5C157.727 249.338 148.64 257.759 137.968 263.762C127.296 269.765 116.124 272.766 104.451 272.766C94.2797 272.766 85.6088 270.682 78.4387 266.513C71.4352 262.345 66.0993 257.092 62.4308 250.756L47.4235 336.548H12.1562L48.1739 131.948H83.4411L79.9394 151.957ZM144.471 200.731C144.971 197.396 145.221 194.395 145.221 191.727C145.221 181.889 142.387 174.218 136.717 168.716C131.048 163.213 123.794 160.461 114.957 160.461C108.62 160.461 102.367 162.129 96.1973 165.464C90.0276 168.632 84.6917 173.301 80.1895 179.471C75.6873 185.64 72.6858 192.894 71.1851 201.231C70.5181 205.567 70.1846 208.735 70.1846 210.736C70.1846 220.574 73.0193 228.245 78.6888 233.747C84.525 239.25 91.7785 242.001 100.449 242.001C106.953 242.001 113.289 240.334 119.459 236.999C125.628 233.664 130.964 228.912 135.467 222.742C139.969 216.572 142.97 209.235 144.471 200.731Z"/>
<path d="M236.199 156.46C242.202 148.122 249.206 141.619 257.21 136.95C265.214 132.281 273.884 129.947 283.222 129.947L276.719 166.715H267.465C257.126 166.715 248.789 168.966 242.452 173.468C236.283 177.97 231.781 185.64 228.946 196.479L215.939 270.515H180.672L205.184 131.948H240.451L236.199 156.46Z"/>
<path d="M331.32 272.766C319.481 272.766 308.976 270.349 299.805 265.513C290.8 260.677 283.797 253.84 278.794 245.003C273.792 236.165 271.291 225.994 271.291 214.488C271.291 198.814 274.959 184.557 282.296 171.717C289.8 158.711 299.971 148.456 312.811 140.952C325.817 133.448 340.241 129.696 356.082 129.696C367.921 129.696 378.426 132.198 387.598 137.2C396.935 142.036 404.106 148.872 409.108 157.71C414.277 166.548 416.862 176.719 416.862 188.225C416.862 204.066 413.11 218.406 405.606 231.246C398.103 244.086 387.764 254.257 374.591 261.761C361.585 269.098 347.161 272.766 331.32 272.766ZM336.072 242.752C344.41 242.752 351.997 240.334 358.834 235.498C365.67 230.662 371.006 224.243 374.841 216.239C378.677 208.235 380.594 199.814 380.594 190.976C380.594 180.972 377.759 173.301 372.09 167.965C366.587 162.462 359.584 159.711 351.08 159.711C342.576 159.711 334.989 162.129 328.319 166.965C321.815 171.8 316.73 178.304 313.061 186.474C309.393 194.478 307.558 202.982 307.558 211.987C307.558 221.825 310.143 229.412 315.312 234.748C320.648 240.084 327.568 242.752 336.072 242.752Z"/>
<path d="M464.809 227.744C464.642 228.745 464.559 230.079 464.559 231.746C464.559 235.081 465.476 237.499 467.31 239C469.311 240.334 472.563 241.001 477.065 241.001H493.573L488.321 270.515H466.06C441.048 270.515 428.541 260.094 428.541 239.25C428.541 235.248 428.875 231.329 429.542 227.494L441.298 160.712H424.79L429.792 131.948H446.55L452.553 97.6808H487.82L481.817 131.948H512.582L507.58 160.712H476.565L464.809 227.744Z"/>
<path d="M562.781 272.766C550.942 272.766 540.437 270.349 531.265 265.513C522.261 260.677 515.258 253.84 510.255 245.003C505.253 236.165 502.751 225.994 502.751 214.488C502.751 198.814 506.42 184.557 513.757 171.717C521.261 158.711 531.432 148.456 544.272 140.952C557.278 133.448 571.702 129.696 587.543 129.696C599.382 129.696 609.887 132.198 619.058 137.2C628.396 142.036 635.566 148.872 640.569 157.71C645.738 166.548 648.323 176.719 648.323 188.225C648.323 204.066 644.571 218.406 637.067 231.246C629.563 244.086 619.225 254.257 606.052 261.761C593.046 269.098 578.622 272.766 562.781 272.766ZM567.533 242.752C575.871 242.752 583.458 240.334 590.294 235.498C597.131 230.662 602.467 224.243 606.302 216.239C610.137 208.235 612.055 199.814 612.055 190.976C612.055 180.972 609.22 173.301 603.551 167.965C598.048 162.462 591.045 159.711 582.541 159.711C574.036 159.711 566.449 162.129 559.779 166.965C553.276 171.8 548.19 178.304 544.522 186.474C540.853 194.478 539.019 202.982 539.019 211.987C539.019 221.825 541.604 229.412 546.773 234.748C552.109 240.084 559.029 242.752 567.533 242.752Z"/>
<path d="M749.296 129.947C763.636 129.947 774.892 133.865 783.062 141.702C791.4 149.373 795.568 160.378 795.568 174.718C795.568 180.054 795.152 184.89 794.318 189.226L779.811 270.515H745.044L758.55 193.978C759.051 190.976 759.301 188.058 759.301 185.224C759.301 176.886 757.05 170.55 752.547 166.214C748.212 161.879 741.959 159.711 733.788 159.711C724.45 159.711 716.446 162.546 709.776 168.215C703.273 173.718 698.938 181.722 696.77 192.227L683.013 270.515H647.746L672.258 131.948H707.525L704.524 148.956C710.193 143.12 716.947 138.534 724.784 135.199C732.621 131.697 740.792 129.947 749.296 129.947Z"/>
<path d="M1037.9 85.4248L1005.14 270.515H962.367L995.133 85.4248H1037.9Z"/>
<path d="M1185.96 130.947L1161.44 270.515H1118.67L1121.93 251.506C1116.42 257.676 1109.67 262.678 1101.67 266.513C1093.83 270.182 1085.41 272.016 1076.4 272.016C1062.4 272.016 1051.39 268.097 1043.39 260.26C1035.38 252.256 1031.38 241.168 1031.38 226.994C1031.38 221.658 1031.8 216.822 1032.63 212.487L1047.14 130.947H1089.66L1076.4 206.734C1075.9 209.402 1075.65 211.987 1075.65 214.488C1075.65 221.491 1077.57 226.911 1081.41 230.746C1085.41 234.414 1090.91 236.249 1097.91 236.249C1105.92 236.249 1112.67 233.914 1118.17 229.245C1123.84 224.409 1127.59 217.573 1129.43 208.735L1143.19 130.947H1185.96Z"/>
<path d="M1237.69 272.516C1226.68 272.516 1216.76 270.765 1207.92 267.264C1199.25 263.762 1192.42 258.926 1187.41 252.757C1182.41 246.42 1179.91 239.167 1179.91 230.996C1179.91 229.829 1180.08 227.744 1180.41 224.743H1221.68C1221.35 229.912 1222.85 234.081 1226.18 237.249C1229.68 240.25 1234.6 241.751 1240.94 241.751C1246.28 241.751 1250.7 240.751 1254.2 238.75C1257.7 236.749 1259.45 233.914 1259.45 230.246C1259.45 226.744 1257.53 223.993 1253.7 221.992C1250.03 219.824 1243.86 217.239 1235.19 214.238C1226.18 211.236 1218.6 208.318 1212.43 205.483C1206.42 202.482 1201.25 198.23 1196.92 192.727C1192.58 187.225 1190.42 180.305 1190.42 171.967C1190.42 163.796 1192.83 156.46 1197.67 149.956C1202.51 143.286 1209.26 138.117 1217.93 134.449C1226.77 130.78 1236.94 128.946 1248.44 128.946C1259.95 128.946 1269.95 130.864 1278.46 134.699C1286.96 138.367 1293.55 143.537 1298.22 150.206C1302.89 156.876 1305.22 164.38 1305.22 172.717L1304.97 176.469H1266.2C1266.54 171.467 1265.04 167.465 1261.7 164.463C1258.37 161.462 1253.61 159.961 1247.44 159.961C1242.61 159.961 1238.61 160.962 1235.44 162.963C1232.44 164.964 1230.94 167.715 1230.94 171.217C1230.94 174.885 1232.94 177.97 1236.94 180.471C1241.11 182.806 1247.53 185.474 1256.2 188.475C1265.2 191.477 1272.62 194.478 1278.46 197.48C1284.46 200.314 1289.55 204.4 1293.72 209.736C1298.05 214.905 1300.22 221.408 1300.22 229.245C1300.22 238.25 1297.47 246.003 1291.97 252.506C1286.63 259.01 1279.21 264.012 1269.7 267.514C1260.37 270.849 1249.69 272.516 1237.69 272.516Z"/>
<path fill-rule="evenodd" clip-rule="evenodd" d="M915.563 129.475C913.742 129.314 911.872 129.234 909.956 129.234C900.118 129.234 891.113 131.235 882.943 135.237C874.939 139.239 868.269 144.491 862.933 150.995L866.435 131.235H823.664L791.738 312.661H834.542L845.424 251.294C848.592 257.63 853.512 262.799 860.181 266.801C866.851 270.803 875.022 272.804 884.693 272.804C896.199 272.804 907.121 269.886 917.459 264.05C927.798 258.047 936.635 249.626 943.972 238.788C951.309 227.782 956.228 215.109 958.73 200.769C959.73 194.766 960.23 189.18 960.23 184.011C960.23 178.559 959.741 173.474 958.762 168.755C954.824 170.493 950.468 171.457 945.887 171.457C928.249 171.457 913.951 157.159 913.951 139.521C913.951 136.011 914.517 132.634 915.563 129.475ZM915.458 200.769C915.959 197.934 916.209 195.35 916.209 193.015C916.209 184.678 913.791 178.175 908.955 173.506C904.286 168.837 898.283 166.502 890.947 166.502C882.442 166.502 874.689 169.587 867.685 175.757C860.682 181.926 856.18 190.347 854.179 201.019C853.678 204.021 853.428 206.772 853.428 209.273C853.428 217.444 855.763 223.864 860.432 228.533C865.101 233.202 871.103 235.536 878.44 235.536C886.945 235.536 894.698 232.451 901.702 226.281C908.872 219.945 913.458 211.441 915.458 200.769Z"/>
</mask>
<path d="M79.9394 151.957C85.6088 145.621 92.6956 140.368 101.2 136.2C109.871 131.864 119.292 129.696 129.464 129.696C139.802 129.696 148.89 131.948 156.727 136.45C164.731 140.785 170.901 147.122 175.236 155.459C179.571 163.796 181.739 173.551 181.739 184.723C181.739 189.893 181.239 195.228 180.238 200.731C177.737 214.905 172.735 227.494 165.231 238.5C157.727 249.338 148.64 257.759 137.968 263.762C127.296 269.765 116.124 272.766 104.451 272.766C94.2797 272.766 85.6088 270.682 78.4387 266.513C71.4352 262.345 66.0993 257.092 62.4308 250.756L47.4235 336.548H12.1562L48.1739 131.948H83.4411L79.9394 151.957ZM144.471 200.731C144.971 197.396 145.221 194.395 145.221 191.727C145.221 181.889 142.387 174.218 136.717 168.716C131.048 163.213 123.794 160.461 114.957 160.461C108.62 160.461 102.367 162.129 96.1973 165.464C90.0276 168.632 84.6917 173.301 80.1895 179.471C75.6873 185.64 72.6858 192.894 71.1851 201.231C70.5181 205.567 70.1846 208.735 70.1846 210.736C70.1846 220.574 73.0193 228.245 78.6888 233.747C84.525 239.25 91.7785 242.001 100.449 242.001C106.953 242.001 113.289 240.334 119.459 236.999C125.628 233.664 130.964 228.912 135.467 222.742C139.969 216.572 142.97 209.235 144.471 200.731Z" fill="#2B2B2B"/>
<path d="M236.199 156.46C242.202 148.122 249.206 141.619 257.21 136.95C265.214 132.281 273.884 129.947 283.222 129.947L276.719 166.715H267.465C257.126 166.715 248.789 168.966 242.452 173.468C236.283 177.97 231.781 185.64 228.946 196.479L215.939 270.515H180.672L205.184 131.948H240.451L236.199 156.46Z" fill="#2B2B2B"/>
<path d="M331.32 272.766C319.481 272.766 308.976 270.349 299.805 265.513C290.8 260.677 283.797 253.84 278.794 245.003C273.792 236.165 271.291 225.994 271.291 214.488C271.291 198.814 274.959 184.557 282.296 171.717C289.8 158.711 299.971 148.456 312.811 140.952C325.817 133.448 340.241 129.696 356.082 129.696C367.921 129.696 378.426 132.198 387.598 137.2C396.935 142.036 404.106 148.872 409.108 157.71C414.277 166.548 416.862 176.719 416.862 188.225C416.862 204.066 413.11 218.406 405.606 231.246C398.103 244.086 387.764 254.257 374.591 261.761C361.585 269.098 347.161 272.766 331.32 272.766ZM336.072 242.752C344.41 242.752 351.997 240.334 358.834 235.498C365.67 230.662 371.006 224.243 374.841 216.239C378.677 208.235 380.594 199.814 380.594 190.976C380.594 180.972 377.759 173.301 372.09 167.965C366.587 162.462 359.584 159.711 351.08 159.711C342.576 159.711 334.989 162.129 328.319 166.965C321.815 171.8 316.73 178.304 313.061 186.474C309.393 194.478 307.558 202.982 307.558 211.987C307.558 221.825 310.143 229.412 315.312 234.748C320.648 240.084 327.568 242.752 336.072 242.752Z" fill="#2B2B2B"/>
<path d="M464.809 227.744C464.642 228.745 464.559 230.079 464.559 231.746C464.559 235.081 465.476 237.499 467.31 239C469.311 240.334 472.563 241.001 477.065 241.001H493.573L488.321 270.515H466.06C441.048 270.515 428.541 260.094 428.541 239.25C428.541 235.248 428.875 231.329 429.542 227.494L441.298 160.712H424.79L429.792 131.948H446.55L452.553 97.6808H487.82L481.817 131.948H512.582L507.58 160.712H476.565L464.809 227.744Z" fill="#2B2B2B"/>
<path d="M562.781 272.766C550.942 272.766 540.437 270.349 531.265 265.513C522.261 260.677 515.258 253.84 510.255 245.003C505.253 236.165 502.751 225.994 502.751 214.488C502.751 198.814 506.42 184.557 513.757 171.717C521.261 158.711 531.432 148.456 544.272 140.952C557.278 133.448 571.702 129.696 587.543 129.696C599.382 129.696 609.887 132.198 619.058 137.2C628.396 142.036 635.566 148.872 640.569 157.71C645.738 166.548 648.323 176.719 648.323 188.225C648.323 204.066 644.571 218.406 637.067 231.246C629.563 244.086 619.225 254.257 606.052 261.761C593.046 269.098 578.622 272.766 562.781 272.766ZM567.533 242.752C575.871 242.752 583.458 240.334 590.294 235.498C597.131 230.662 602.467 224.243 606.302 216.239C610.137 208.235 612.055 199.814 612.055 190.976C612.055 180.972 609.22 173.301 603.551 167.965C598.048 162.462 591.045 159.711 582.541 159.711C574.036 159.711 566.449 162.129 559.779 166.965C553.276 171.8 548.19 178.304 544.522 186.474C540.853 194.478 539.019 202.982 539.019 211.987C539.019 221.825 541.604 229.412 546.773 234.748C552.109 240.084 559.029 242.752 567.533 242.752Z" fill="#2B2B2B"/>
<path d="M749.296 129.947C763.636 129.947 774.892 133.865 783.062 141.702C791.4 149.373 795.568 160.378 795.568 174.718C795.568 180.054 795.152 184.89 794.318 189.226L779.811 270.515H745.044L758.55 193.978C759.051 190.976 759.301 188.058 759.301 185.224C759.301 176.886 757.05 170.55 752.547 166.214C748.212 161.879 741.959 159.711 733.788 159.711C724.45 159.711 716.446 162.546 709.776 168.215C703.273 173.718 698.938 181.722 696.77 192.227L683.013 270.515H647.746L672.258 131.948H707.525L704.524 148.956C710.193 143.12 716.947 138.534 724.784 135.199C732.621 131.697 740.792 129.947 749.296 129.947Z" fill="#2B2B2B"/>
<path d="M1037.9 85.4248L1005.14 270.515H962.367L995.133 85.4248H1037.9Z" fill="#2B2B2B"/>
<path d="M1185.96 130.947L1161.44 270.515H1118.67L1121.93 251.506C1116.42 257.676 1109.67 262.678 1101.67 266.513C1093.83 270.182 1085.41 272.016 1076.4 272.016C1062.4 272.016 1051.39 268.097 1043.39 260.26C1035.38 252.256 1031.38 241.168 1031.38 226.994C1031.38 221.658 1031.8 216.822 1032.63 212.487L1047.14 130.947H1089.66L1076.4 206.734C1075.9 209.402 1075.65 211.987 1075.65 214.488C1075.65 221.491 1077.57 226.911 1081.41 230.746C1085.41 234.414 1090.91 236.249 1097.91 236.249C1105.92 236.249 1112.67 233.914 1118.17 229.245C1123.84 224.409 1127.59 217.573 1129.43 208.735L1143.19 130.947H1185.96Z" fill="#2B2B2B"/>
<path d="M1237.69 272.516C1226.68 272.516 1216.76 270.765 1207.92 267.264C1199.25 263.762 1192.42 258.926 1187.41 252.757C1182.41 246.42 1179.91 239.167 1179.91 230.996C1179.91 229.829 1180.08 227.744 1180.41 224.743H1221.68C1221.35 229.912 1222.85 234.081 1226.18 237.249C1229.68 240.25 1234.6 241.751 1240.94 241.751C1246.28 241.751 1250.7 240.751 1254.2 238.75C1257.7 236.749 1259.45 233.914 1259.45 230.246C1259.45 226.744 1257.53 223.993 1253.7 221.992C1250.03 219.824 1243.86 217.239 1235.19 214.238C1226.18 211.236 1218.6 208.318 1212.43 205.483C1206.42 202.482 1201.25 198.23 1196.92 192.727C1192.58 187.225 1190.42 180.305 1190.42 171.967C1190.42 163.796 1192.83 156.46 1197.67 149.956C1202.51 143.286 1209.26 138.117 1217.93 134.449C1226.77 130.78 1236.94 128.946 1248.44 128.946C1259.95 128.946 1269.95 130.864 1278.46 134.699C1286.96 138.367 1293.55 143.537 1298.22 150.206C1302.89 156.876 1305.22 164.38 1305.22 172.717L1304.97 176.469H1266.2C1266.54 171.467 1265.04 167.465 1261.7 164.463C1258.37 161.462 1253.61 159.961 1247.44 159.961C1242.61 159.961 1238.61 160.962 1235.44 162.963C1232.44 164.964 1230.94 167.715 1230.94 171.217C1230.94 174.885 1232.94 177.97 1236.94 180.471C1241.11 182.806 1247.53 185.474 1256.2 188.475C1265.2 191.477 1272.62 194.478 1278.46 197.48C1284.46 200.314 1289.55 204.4 1293.72 209.736C1298.05 214.905 1300.22 221.408 1300.22 229.245C1300.22 238.25 1297.47 246.003 1291.97 252.506C1286.63 259.01 1279.21 264.012 1269.7 267.514C1260.37 270.849 1249.69 272.516 1237.69 272.516Z" fill="#2B2B2B"/>
<path fill-rule="evenodd" clip-rule="evenodd" d="M915.563 129.475C913.742 129.314 911.872 129.234 909.956 129.234C900.118 129.234 891.113 131.235 882.943 135.237C874.939 139.239 868.269 144.491 862.933 150.995L866.435 131.235H823.664L791.738 312.661H834.542L845.424 251.294C848.592 257.63 853.512 262.799 860.181 266.801C866.851 270.803 875.022 272.804 884.693 272.804C896.199 272.804 907.121 269.886 917.459 264.05C927.798 258.047 936.635 249.626 943.972 238.788C951.309 227.782 956.228 215.109 958.73 200.769C959.73 194.766 960.23 189.18 960.23 184.011C960.23 178.559 959.741 173.474 958.762 168.755C954.824 170.493 950.468 171.457 945.887 171.457C928.249 171.457 913.951 157.159 913.951 139.521C913.951 136.011 914.517 132.634 915.563 129.475ZM915.458 200.769C915.959 197.934 916.209 195.35 916.209 193.015C916.209 184.678 913.791 178.175 908.955 173.506C904.286 168.837 898.283 166.502 890.947 166.502C882.442 166.502 874.689 169.587 867.685 175.757C860.682 181.926 856.18 190.347 854.179 201.019C853.678 204.021 853.428 206.772 853.428 209.273C853.428 217.444 855.763 223.864 860.432 228.533C865.101 233.202 871.103 235.536 878.44 235.536C886.945 235.536 894.698 232.451 901.702 226.281C908.872 219.945 913.458 211.441 915.458 200.769Z" fill="#2B2B2B"/>
<path d="M79.9394 151.957C85.6088 145.621 92.6956 140.368 101.2 136.2C109.871 131.864 119.292 129.696 129.464 129.696C139.802 129.696 148.89 131.948 156.727 136.45C164.731 140.785 170.901 147.122 175.236 155.459C179.571 163.796 181.739 173.551 181.739 184.723C181.739 189.893 181.239 195.228 180.238 200.731C177.737 214.905 172.735 227.494 165.231 238.5C157.727 249.338 148.64 257.759 137.968 263.762C127.296 269.765 116.124 272.766 104.451 272.766C94.2797 272.766 85.6088 270.682 78.4387 266.513C71.4352 262.345 66.0993 257.092 62.4308 250.756L47.4235 336.548H12.1562L48.1739 131.948H83.4411L79.9394 151.957ZM144.471 200.731C144.971 197.396 145.221 194.395 145.221 191.727C145.221 181.889 142.387 174.218 136.717 168.716C131.048 163.213 123.794 160.461 114.957 160.461C108.62 160.461 102.367 162.129 96.1973 165.464C90.0276 168.632 84.6917 173.301 80.1895 179.471C75.6873 185.64 72.6858 192.894 71.1851 201.231C70.5181 205.567 70.1846 208.735 70.1846 210.736C70.1846 220.574 73.0193 228.245 78.6888 233.747C84.525 239.25 91.7785 242.001 100.449 242.001C106.953 242.001 113.289 240.334 119.459 236.999C125.628 233.664 130.964 228.912 135.467 222.742C139.969 216.572 142.97 209.235 144.471 200.731Z" stroke="#FAFAFA" stroke-width="20" mask="url(#path-1-outside-1_577_53)"/>
<path d="M236.199 156.46C242.202 148.122 249.206 141.619 257.21 136.95C265.214 132.281 273.884 129.947 283.222 129.947L276.719 166.715H267.465C257.126 166.715 248.789 168.966 242.452 173.468C236.283 177.97 231.781 185.64 228.946 196.479L215.939 270.515H180.672L205.184 131.948H240.451L236.199 156.46Z" stroke="#FAFAFA" stroke-width="20" mask="url(#path-1-outside-1_577_53)"/>
<path d="M331.32 272.766C319.481 272.766 308.976 270.349 299.805 265.513C290.8 260.677 283.797 253.84 278.794 245.003C273.792 236.165 271.291 225.994 271.291 214.488C271.291 198.814 274.959 184.557 282.296 171.717C289.8 158.711 299.971 148.456 312.811 140.952C325.817 133.448 340.241 129.696 356.082 129.696C367.921 129.696 378.426 132.198 387.598 137.2C396.935 142.036 404.106 148.872 409.108 157.71C414.277 166.548 416.862 176.719 416.862 188.225C416.862 204.066 413.11 218.406 405.606 231.246C398.103 244.086 387.764 254.257 374.591 261.761C361.585 269.098 347.161 272.766 331.32 272.766ZM336.072 242.752C344.41 242.752 351.997 240.334 358.834 235.498C365.67 230.662 371.006 224.243 374.841 216.239C378.677 208.235 380.594 199.814 380.594 190.976C380.594 180.972 377.759 173.301 372.09 167.965C366.587 162.462 359.584 159.711 351.08 159.711C342.576 159.711 334.989 162.129 328.319 166.965C321.815 171.8 316.73 178.304 313.061 186.474C309.393 194.478 307.558 202.982 307.558 211.987C307.558 221.825 310.143 229.412 315.312 234.748C320.648 240.084 327.568 242.752 336.072 242.752Z" stroke="#FAFAFA" stroke-width="20" mask="url(#path-1-outside-1_577_53)"/>
<path d="M464.809 227.744C464.642 228.745 464.559 230.079 464.559 231.746C464.559 235.081 465.476 237.499 467.31 239C469.311 240.334 472.563 241.001 477.065 241.001H493.573L488.321 270.515H466.06C441.048 270.515 428.541 260.094 428.541 239.25C428.541 235.248 428.875 231.329 429.542 227.494L441.298 160.712H424.79L429.792 131.948H446.55L452.553 97.6808H487.82L481.817 131.948H512.582L507.58 160.712H476.565L464.809 227.744Z" stroke="#FAFAFA" stroke-width="20" mask="url(#path-1-outside-1_577_53)"/>
<path d="M562.781 272.766C550.942 272.766 540.437 270.349 531.265 265.513C522.261 260.677 515.258 253.84 510.255 245.003C505.253 236.165 502.751 225.994 502.751 214.488C502.751 198.814 506.42 184.557 513.757 171.717C521.261 158.711 531.432 148.456 544.272 140.952C557.278 133.448 571.702 129.696 587.543 129.696C599.382 129.696 609.887 132.198 619.058 137.2C628.396 142.036 635.566 148.872 640.569 157.71C645.738 166.548 648.323 176.719 648.323 188.225C648.323 204.066 644.571 218.406 637.067 231.246C629.563 244.086 619.225 254.257 606.052 261.761C593.046 269.098 578.622 272.766 562.781 272.766ZM567.533 242.752C575.871 242.752 583.458 240.334 590.294 235.498C597.131 230.662 602.467 224.243 606.302 216.239C610.137 208.235 612.055 199.814 612.055 190.976C612.055 180.972 609.22 173.301 603.551 167.965C598.048 162.462 591.045 159.711 582.541 159.711C574.036 159.711 566.449 162.129 559.779 166.965C553.276 171.8 548.19 178.304 544.522 186.474C540.853 194.478 539.019 202.982 539.019 211.987C539.019 221.825 541.604 229.412 546.773 234.748C552.109 240.084 559.029 242.752 567.533 242.752Z" stroke="#FAFAFA" stroke-width="20" mask="url(#path-1-outside-1_577_53)"/>
<path d="M749.296 129.947C763.636 129.947 774.892 133.865 783.062 141.702C791.4 149.373 795.568 160.378 795.568 174.718C795.568 180.054 795.152 184.89 794.318 189.226L779.811 270.515H745.044L758.55 193.978C759.051 190.976 759.301 188.058 759.301 185.224C759.301 176.886 757.05 170.55 752.547 166.214C748.212 161.879 741.959 159.711 733.788 159.711C724.45 159.711 716.446 162.546 709.776 168.215C703.273 173.718 698.938 181.722 696.77 192.227L683.013 270.515H647.746L672.258 131.948H707.525L704.524 148.956C710.193 143.12 716.947 138.534 724.784 135.199C732.621 131.697 740.792 129.947 749.296 129.947Z" stroke="#FAFAFA" stroke-width="20" mask="url(#path-1-outside-1_577_53)"/>
<path d="M1037.9 85.4248L1005.14 270.515H962.367L995.133 85.4248H1037.9Z" stroke="#FAFAFA" stroke-width="20" mask="url(#path-1-outside-1_577_53)"/>
<path d="M1185.96 130.947L1161.44 270.515H1118.67L1121.93 251.506C1116.42 257.676 1109.67 262.678 1101.67 266.513C1093.83 270.182 1085.41 272.016 1076.4 272.016C1062.4 272.016 1051.39 268.097 1043.39 260.26C1035.38 252.256 1031.38 241.168 1031.38 226.994C1031.38 221.658 1031.8 216.822 1032.63 212.487L1047.14 130.947H1089.66L1076.4 206.734C1075.9 209.402 1075.65 211.987 1075.65 214.488C1075.65 221.491 1077.57 226.911 1081.41 230.746C1085.41 234.414 1090.91 236.249 1097.91 236.249C1105.92 236.249 1112.67 233.914 1118.17 229.245C1123.84 224.409 1127.59 217.573 1129.43 208.735L1143.19 130.947H1185.96Z" stroke="#FAFAFA" stroke-width="20" mask="url(#path-1-outside-1_577_53)"/>
<path d="M1237.69 272.516C1226.68 272.516 1216.76 270.765 1207.92 267.264C1199.25 263.762 1192.42 258.926 1187.41 252.757C1182.41 246.42 1179.91 239.167 1179.91 230.996C1179.91 229.829 1180.08 227.744 1180.41 224.743H1221.68C1221.35 229.912 1222.85 234.081 1226.18 237.249C1229.68 240.25 1234.6 241.751 1240.94 241.751C1246.28 241.751 1250.7 240.751 1254.2 238.75C1257.7 236.749 1259.45 233.914 1259.45 230.246C1259.45 226.744 1257.53 223.993 1253.7 221.992C1250.03 219.824 1243.86 217.239 1235.19 214.238C1226.18 211.236 1218.6 208.318 1212.43 205.483C1206.42 202.482 1201.25 198.23 1196.92 192.727C1192.58 187.225 1190.42 180.305 1190.42 171.967C1190.42 163.796 1192.83 156.46 1197.67 149.956C1202.51 143.286 1209.26 138.117 1217.93 134.449C1226.77 130.78 1236.94 128.946 1248.44 128.946C1259.95 128.946 1269.95 130.864 1278.46 134.699C1286.96 138.367 1293.55 143.537 1298.22 150.206C1302.89 156.876 1305.22 164.38 1305.22 172.717L1304.97 176.469H1266.2C1266.54 171.467 1265.04 167.465 1261.7 164.463C1258.37 161.462 1253.61 159.961 1247.44 159.961C1242.61 159.961 1238.61 160.962 1235.44 162.963C1232.44 164.964 1230.94 167.715 1230.94 171.217C1230.94 174.885 1232.94 177.97 1236.94 180.471C1241.11 182.806 1247.53 185.474 1256.2 188.475C1265.2 191.477 1272.62 194.478 1278.46 197.48C1284.46 200.314 1289.55 204.4 1293.72 209.736C1298.05 214.905 1300.22 221.408 1300.22 229.245C1300.22 238.25 1297.47 246.003 1291.97 252.506C1286.63 259.01 1279.21 264.012 1269.7 267.514C1260.37 270.849 1249.69 272.516 1237.69 272.516Z" stroke="#FAFAFA" stroke-width="20" mask="url(#path-1-outside-1_577_53)"/>
<path fill-rule="evenodd" clip-rule="evenodd" d="M915.563 129.475C913.742 129.314 911.872 129.234 909.956 129.234C900.118 129.234 891.113 131.235 882.943 135.237C874.939 139.239 868.269 144.491 862.933 150.995L866.435 131.235H823.664L791.738 312.661H834.542L845.424 251.294C848.592 257.63 853.512 262.799 860.181 266.801C866.851 270.803 875.022 272.804 884.693 272.804C896.199 272.804 907.121 269.886 917.459 264.05C927.798 258.047 936.635 249.626 943.972 238.788C951.309 227.782 956.228 215.109 958.73 200.769C959.73 194.766 960.23 189.18 960.23 184.011C960.23 178.559 959.741 173.474 958.762 168.755C954.824 170.493 950.468 171.457 945.887 171.457C928.249 171.457 913.951 157.159 913.951 139.521C913.951 136.011 914.517 132.634 915.563 129.475ZM915.458 200.769C915.959 197.934 916.209 195.35 916.209 193.015C916.209 184.678 913.791 178.175 908.955 173.506C904.286 168.837 898.283 166.502 890.947 166.502C882.442 166.502 874.689 169.587 867.685 175.757C860.682 181.926 856.18 190.347 854.179 201.019C853.678 204.021 853.428 206.772 853.428 209.273C853.428 217.444 855.763 223.864 860.432 228.533C865.101 233.202 871.103 235.536 878.44 235.536C886.945 235.536 894.698 232.451 901.702 226.281C908.872 219.945 913.458 211.441 915.458 200.769Z" stroke="#FAFAFA" stroke-width="20" mask="url(#path-1-outside-1_577_53)"/>
<circle cx="945.888" cy="139.521" r="29.5635" fill="#FF5E5E" stroke="#FAFAFA" stroke-width="10"/>
<path d="M1403.04 236.126L1420.27 271.636L1421.64 274.452H1424.77H1464.29H1472.28L1468.79 267.268L1436.44 200.646L1492.14 134.094L1499.01 125.885H1488.3H1450.78H1448.33L1446.83 127.83L1418.74 164.211L1401.51 128.701L1400.14 125.885H1397.01H1357.49H1349.5L1352.99 133.069L1385.1 199.209L1329.62 266.265L1322.85 274.452H1333.48H1370.99H1373.45L1374.95 272.508L1403.04 236.126Z" fill="#FF5E5E" stroke="#FAFAFA" stroke-width="10"/>
<path d="M1558.19 271.918C1539.95 271.918 1527.83 262.427 1521.83 243.444C1520.19 238.267 1519.36 232.432 1519.36 225.94C1519.36 218.626 1520.39 210.532 1522.45 201.657C1526.55 184.318 1532.72 170.389 1540.93 159.87C1555.73 140.887 1572.33 131.396 1590.73 131.396C1609.31 131.396 1621.43 140.887 1627.1 159.87C1628.66 165.129 1629.44 170.964 1629.44 177.374C1629.44 184.688 1628.41 192.782 1626.36 201.657L1615.63 248.005C1614.81 251.62 1616.37 253.428 1620.32 253.428H1629.81L1629.56 254.661L1615.76 274.383C1598.58 274.383 1589.99 268.22 1589.99 255.894C1589.99 253.51 1590.32 250.881 1590.98 248.005L1601.7 201.657C1604.01 191.467 1605.16 183.208 1605.16 176.881C1605.16 173.758 1604.87 171.005 1604.29 168.622C1601.25 157.775 1595.09 152.351 1585.8 152.351C1576.52 152.351 1567.89 157.775 1559.92 168.622C1554.9 175.443 1550.63 186.454 1547.1 201.657C1544.8 211.6 1543.65 219.736 1543.65 226.063C1543.65 229.433 1543.98 232.309 1544.63 234.692C1547.59 245.457 1553.67 250.881 1562.88 250.963H1572.37L1572 252.196L1558.19 271.918ZM1643.93 274.383L1686.58 89.486L1712.59 78.3921H1713.83L1690.16 181.072L1749.45 128.931H1750.68L1770.03 139.162L1724.67 176.757C1736.1 178.319 1744.81 182.14 1750.81 188.221C1756.97 194.467 1760.05 201.575 1760.05 209.546C1760.05 212.176 1759.72 214.887 1759.06 217.681C1756.11 230.254 1745.71 240.526 1727.88 248.498H1758.32L1758.08 249.73L1744.27 269.453H1686.58L1686.83 268.22L1700.64 248.498C1707.95 246.361 1714.73 242.951 1720.98 238.267C1728.04 232.925 1732.52 226.063 1734.41 217.681C1734.82 215.874 1735.03 214.189 1735.03 212.628C1735.03 208.272 1733.47 204.533 1730.34 201.41C1727.06 198.123 1721.3 196.48 1713.09 196.48C1705.61 196.48 1698.83 198.616 1692.75 202.89C1686.58 207.245 1682.43 214.148 1680.3 223.598L1671.18 263.289L1645.17 274.383H1643.93ZM1823.11 271.918C1804.87 271.918 1792.75 262.427 1786.75 243.444C1785.11 238.267 1784.28 232.432 1784.28 225.94C1784.28 218.626 1785.31 210.532 1787.37 201.657C1791.47 184.318 1797.64 170.389 1805.86 159.87C1820.65 140.887 1837.25 131.396 1855.65 131.396C1874.23 131.396 1886.35 140.887 1892.02 159.87C1893.58 165.129 1894.36 170.964 1894.36 177.374C1894.36 184.688 1893.33 192.782 1891.28 201.657L1880.55 248.005C1879.73 251.62 1881.29 253.428 1885.24 253.428H1894.73L1894.48 254.661L1880.68 274.383C1863.5 274.383 1854.92 268.22 1854.92 255.894C1854.92 253.51 1855.24 250.881 1855.9 248.005L1866.63 201.657C1868.93 191.467 1870.08 183.208 1870.08 176.881C1870.08 173.758 1869.79 171.005 1869.21 168.622C1866.17 157.775 1860.01 152.351 1850.72 152.351C1841.44 152.351 1832.81 157.775 1824.84 168.622C1819.83 175.443 1815.55 186.454 1812.02 201.657C1809.72 211.6 1808.57 219.736 1808.57 226.063C1808.57 229.433 1808.9 232.309 1809.55 234.692C1812.51 245.457 1818.59 250.881 1827.8 250.963H1837.29L1836.92 252.196L1823.11 271.918ZM1949.16 274.383C1931.99 274.383 1923.4 268.22 1923.4 255.894C1923.4 253.51 1923.73 250.881 1924.39 248.005L1945.96 154.816H1914.28L1914.53 153.584L1928.33 133.861H1950.77L1961 89.486L1987.01 78.3921H1988.24L1975.42 133.861H2007.1L2006.85 135.094L1993.05 154.816H1970.61L1949.04 248.005C1948.22 251.62 1949.78 253.428 1953.72 253.428H1963.22L1962.97 254.661L1949.16 274.383ZM1986.34 243.814C1986.34 243.814 1993.53 240.773 2007.91 234.692H2009.14C2012.1 245.539 2018.27 250.963 2027.63 250.963C2036.59 250.963 2044.23 248.005 2050.56 242.088C2055.66 237.322 2058.9 232.021 2060.3 226.187C2060.71 224.461 2060.92 222.817 2060.92 221.256C2060.92 217.476 2059.68 214.353 2057.22 211.888C2053.6 208.272 2047.77 205.807 2039.71 204.492C2029.44 202.849 2021.63 199.726 2016.29 195.124C2010.87 190.44 2008.16 184.318 2008.16 176.757C2008.16 174.046 2008.53 171.046 2009.27 167.759C2011.81 156.501 2019.25 147.051 2031.58 139.408C2040.21 134.067 2049.33 131.396 2058.94 131.396C2075.13 131.396 2085.08 139.203 2088.77 154.816L2067.2 163.938H2065.97C2064 156.213 2060.01 152.351 2054.01 152.351C2049.08 152.351 2044.81 153.584 2041.19 156.049C2036.92 158.925 2034.13 162.993 2032.81 168.252C2032.48 169.567 2032.32 170.759 2032.32 171.827C2032.32 175.114 2033.67 177.538 2036.39 179.1C2040.17 181.318 2046.12 183.332 2054.26 185.139C2064.53 187.358 2072.34 191.015 2077.68 196.11C2082.86 201.041 2085.44 207.697 2085.44 216.079C2085.44 219.53 2084.99 223.352 2084.09 227.543C2081.79 238.143 2074.72 248.333 2062.89 258.112C2051.71 267.316 2038.32 271.918 2022.7 271.918C2004.3 271.918 1992.17 262.55 1986.34 243.814ZM2231.59 128.931L2214.82 201.657C2210.88 218.832 2204.72 232.761 2196.33 243.444C2181.46 262.427 2164.9 271.918 2146.66 271.918C2127.84 271.918 2115.72 262.427 2110.3 243.444C2108.73 237.938 2107.95 231.939 2107.95 225.447C2107.95 218.051 2108.94 210.121 2110.91 201.657C2115.6 181.688 2127.31 166.075 2146.04 154.816H2115.6L2115.84 153.584L2129.65 133.861H2187.34L2187.09 135.094L2173.28 154.816C2161.78 161.719 2153.44 168.458 2148.26 175.032C2142.1 182.921 2137.87 191.796 2135.56 201.657C2133.26 211.6 2132.11 219.736 2132.11 226.063C2132.11 229.433 2132.44 232.309 2133.1 234.692C2136.06 245.539 2142.22 250.963 2151.59 250.963C2160.87 250.963 2169.5 245.539 2177.47 234.692C2182.41 227.953 2186.64 216.942 2190.17 201.657L2204.35 140.025L2230.36 128.931H2231.59ZM2232.4 274.383L2275.05 89.486L2301.06 78.3921H2302.29L2278.63 181.072L2337.92 128.931H2339.15L2358.5 139.162L2313.14 176.757C2324.56 178.319 2333.27 182.14 2339.27 188.221C2345.44 194.467 2348.52 201.575 2348.52 209.546C2348.52 212.176 2348.19 214.887 2347.53 217.681C2344.57 230.254 2334.18 240.526 2316.34 248.498H2346.79L2346.54 249.73L2332.74 269.453H2275.05L2275.3 268.22L2289.1 248.498C2296.42 246.361 2303.2 242.951 2309.44 238.267C2316.51 232.925 2320.99 226.063 2322.88 217.681C2323.29 215.874 2323.49 214.189 2323.49 212.628C2323.49 208.272 2321.93 204.533 2318.81 201.41C2315.52 198.123 2309.77 196.48 2301.55 196.48C2294.07 196.48 2287.3 198.616 2281.21 202.89C2275.05 207.245 2270.9 214.148 2268.76 223.598L2259.64 263.289L2233.63 274.383H2232.4ZM2403.81 96.019C2404.8 91.828 2407.06 88.2533 2410.59 85.295C2414.13 82.3366 2417.99 80.8574 2422.18 80.8574C2426.37 80.8574 2429.53 82.3366 2431.67 85.295C2433.23 87.4316 2434.01 89.7736 2434.01 92.3211C2434.01 93.3072 2433.85 94.5398 2433.52 96.019C2432.29 100.374 2430.03 103.908 2426.74 106.62C2423.12 109.578 2419.22 111.057 2415.03 111.057C2410.92 111.057 2407.76 109.537 2405.54 106.497C2404.06 104.524 2403.32 102.347 2403.32 99.9635C2403.32 98.813 2403.48 97.4982 2403.81 96.019ZM2396.05 274.383C2378.87 274.383 2370.29 268.22 2370.29 255.894C2370.29 253.51 2370.61 250.881 2371.27 248.005L2396.17 140.025L2422.18 128.931H2423.41L2395.92 248.005C2395.1 251.62 2396.66 253.428 2400.61 253.428H2410.1L2409.85 254.661L2396.05 274.383Z" fill="#202020"/>
<path d="M2424.23 269.453V247.868H2445.81V269.453H2424.23Z" fill="#FF3509"/>
<path d="M1558.19 271.918V281.918H1563.4L1566.38 277.653L1558.19 271.918ZM1521.83 243.444L1531.36 240.43L1531.36 240.418L1521.83 243.444ZM1522.45 201.657L1512.71 199.351L1512.71 199.376L1512.7 199.402L1522.45 201.657ZM1540.93 159.87L1548.82 166.027L1548.82 166.017L1540.93 159.87ZM1627.1 159.87L1636.68 157.024L1636.68 157.016L1636.68 157.008L1627.1 159.87ZM1626.36 201.657L1616.62 199.402L1616.61 199.403L1626.36 201.657ZM1615.63 248.005L1605.89 245.75L1605.89 245.769L1605.88 245.788L1615.63 248.005ZM1629.81 253.428L1639.61 255.389L1642.01 243.428H1629.81V253.428ZM1629.56 254.661L1637.75 260.395L1638.96 258.678L1639.37 256.622L1629.56 254.661ZM1615.76 274.383V284.383H1620.96L1623.95 280.118L1615.76 274.383ZM1590.98 248.005L1581.24 245.75L1581.23 245.763L1581.23 245.776L1590.98 248.005ZM1601.7 201.657L1611.45 203.911L1611.45 203.885L1611.46 203.86L1601.7 201.657ZM1604.29 168.622L1614.01 166.276L1613.97 166.098L1613.92 165.923L1604.29 168.622ZM1559.92 168.622L1567.98 174.544L1567.98 174.544L1559.92 168.622ZM1547.1 201.657L1537.36 199.393L1537.36 199.403L1547.1 201.657ZM1544.63 234.692L1554.28 232.042L1554.27 232.033L1544.63 234.692ZM1562.88 250.963L1562.79 260.963L1562.83 260.963H1562.88V250.963ZM1572.37 250.963L1581.95 253.836L1585.81 240.963H1572.37V250.963ZM1572 252.196L1580.19 257.93L1581.11 256.611L1581.58 255.069L1572 252.196ZM1558.19 261.918C1550.88 261.918 1545.57 260.051 1541.58 256.926C1537.52 253.742 1533.93 248.559 1531.36 240.43L1512.29 246.457C1515.72 257.311 1521.2 266.365 1529.25 272.673C1537.38 279.039 1547.26 281.918 1558.19 281.918V261.918ZM1531.36 240.418C1530.08 236.389 1529.36 231.6 1529.36 225.94H1509.36C1509.36 233.265 1510.29 240.145 1512.3 246.47L1531.36 240.418ZM1529.36 225.94C1529.36 219.544 1530.26 212.22 1532.19 203.912L1512.7 199.402C1510.52 208.844 1509.36 217.709 1509.36 225.94H1529.36ZM1532.18 203.963C1536.06 187.579 1541.73 175.097 1548.82 166.027L1533.05 153.714C1523.71 165.681 1517.05 181.056 1512.71 199.351L1532.18 203.963ZM1548.82 166.017C1562.35 148.655 1576.31 141.396 1590.73 141.396V121.396C1568.34 121.396 1549.1 133.12 1533.05 153.724L1548.82 166.017ZM1590.73 141.396C1598.26 141.396 1603.63 143.287 1607.59 146.388C1611.61 149.535 1615.1 154.656 1617.52 162.732L1636.68 157.008C1633.42 146.101 1628.02 136.986 1619.92 130.641C1611.76 124.25 1601.78 121.396 1590.73 121.396V141.396ZM1617.51 162.716C1618.76 166.912 1619.44 171.77 1619.44 177.374H1639.44C1639.44 170.158 1638.56 163.347 1636.68 157.024L1617.51 162.716ZM1619.44 177.374C1619.44 183.77 1618.54 191.094 1616.62 199.402L1636.1 203.912C1638.29 194.47 1639.44 185.605 1639.44 177.374H1619.44ZM1616.61 199.403L1605.89 245.75L1625.38 250.259L1636.1 203.911L1616.61 199.403ZM1605.88 245.788C1605.17 248.941 1604.82 254.203 1608.62 258.608C1612.24 262.8 1617.28 263.428 1620.32 263.428V243.428C1619.41 243.428 1621.7 243.153 1623.76 245.536C1626 248.133 1625.28 250.684 1625.38 250.221L1605.88 245.788ZM1620.32 263.428H1629.81V243.428H1620.32V263.428ZM1620 251.467L1619.76 252.7L1639.37 256.622L1639.61 255.389L1620 251.467ZM1621.37 248.926L1607.56 268.649L1623.95 280.118L1637.75 260.395L1621.37 248.926ZM1615.76 264.383C1608.06 264.383 1604.09 262.949 1602.27 261.637C1601.05 260.764 1599.99 259.447 1599.99 255.894H1579.99C1579.99 264.666 1583.23 272.594 1590.6 277.885C1597.36 282.736 1606.27 284.383 1615.76 284.383V264.383ZM1599.99 255.894C1599.99 254.413 1600.2 252.543 1600.73 250.233L1581.23 245.776C1580.45 249.218 1579.99 252.608 1579.99 255.894H1599.99ZM1600.72 250.259L1611.45 203.911L1591.96 199.403L1581.24 245.75L1600.72 250.259ZM1611.46 203.86C1613.83 193.349 1615.16 184.271 1615.16 176.881H1595.16C1595.16 182.145 1594.18 189.585 1591.95 199.454L1611.46 203.86ZM1615.16 176.881C1615.16 173.172 1614.82 169.603 1614.01 166.276L1594.57 170.968C1594.92 172.407 1595.16 174.345 1595.16 176.881H1615.16ZM1613.92 165.923C1612.07 159.308 1608.98 153.293 1604 148.912C1598.85 144.381 1592.54 142.351 1585.8 142.351V162.351C1588.36 162.351 1589.77 163.032 1590.78 163.926C1591.97 164.968 1593.48 167.088 1594.66 171.321L1613.92 165.923ZM1585.8 142.351C1572.08 142.351 1560.82 150.505 1551.86 162.7L1567.98 174.544C1574.96 165.044 1580.95 162.351 1585.8 162.351V142.351ZM1551.86 162.7C1545.63 171.182 1540.98 183.796 1537.36 199.393L1556.84 203.921C1560.28 189.112 1564.18 179.703 1567.98 174.544L1551.86 162.7ZM1537.36 199.403C1534.97 209.694 1533.65 218.66 1533.65 226.063H1553.65C1553.65 220.812 1554.62 213.507 1556.84 203.911L1537.36 199.403ZM1533.65 226.063C1533.65 230.03 1534.03 233.853 1534.99 237.351L1554.27 232.033C1553.92 230.765 1553.65 228.835 1553.65 226.063H1533.65ZM1534.99 237.342C1536.8 243.917 1539.84 249.909 1544.76 254.296C1549.84 258.832 1556.1 260.903 1562.79 260.963L1562.97 240.963C1560.45 240.941 1559.06 240.259 1558.07 239.371C1556.91 238.335 1555.43 236.232 1554.28 232.042L1534.99 237.342ZM1562.88 260.963H1572.37V240.963H1562.88V260.963ZM1562.79 248.089L1562.42 249.322L1581.58 255.069L1581.95 253.836L1562.79 248.089ZM1563.81 246.461L1550 266.183L1566.38 277.653L1580.19 257.93L1563.81 246.461ZM1643.93 274.383L1634.19 272.136L1631.37 284.383H1643.93V274.383ZM1686.58 89.486L1682.66 80.2878L1677.98 82.283L1676.84 87.2383L1686.58 89.486ZM1712.59 78.3921V68.3921H1710.55L1708.67 69.1939L1712.59 78.3921ZM1713.83 78.3921L1723.57 80.6382L1726.39 68.3921H1713.83V78.3921ZM1690.16 181.072L1680.41 178.826L1673.44 209.093L1696.76 188.581L1690.16 181.072ZM1749.45 128.931V118.931H1745.68L1742.85 121.421L1749.45 128.931ZM1750.68 128.931L1755.36 120.09L1753.16 118.931H1750.68V128.931ZM1770.03 139.162L1776.42 146.861L1787.94 137.314L1774.71 130.321L1770.03 139.162ZM1724.67 176.757L1718.29 169.058L1700.77 183.583L1723.32 186.665L1724.67 176.757ZM1750.81 188.221L1743.69 195.244L1743.69 195.245L1750.81 188.221ZM1759.06 217.681L1768.8 219.972L1759.06 217.681ZM1727.88 248.498L1723.8 239.368L1727.88 258.498V248.498ZM1758.32 248.498L1768.13 250.459L1770.52 238.498H1758.32V248.498ZM1758.08 249.73L1766.27 255.465L1767.47 253.747L1767.88 251.691L1758.08 249.73ZM1744.27 269.453V279.453H1749.48L1752.46 275.187L1744.27 269.453ZM1686.58 269.453L1676.78 267.491L1674.39 279.453H1686.58V269.453ZM1686.83 268.22L1678.64 262.485L1677.44 264.203L1677.03 266.259L1686.83 268.22ZM1700.64 248.498L1697.83 238.899L1694.46 239.884L1692.44 242.763L1700.64 248.498ZM1720.98 238.267L1726.98 246.267L1726.99 246.256L1727.01 246.244L1720.98 238.267ZM1734.41 217.681L1724.66 215.465L1724.66 215.473L1724.66 215.482L1734.41 217.681ZM1692.75 202.89L1687 194.708L1686.99 194.715L1686.98 194.723L1692.75 202.89ZM1680.3 223.598L1690.04 225.838L1690.05 225.821L1690.05 225.803L1680.3 223.598ZM1671.18 263.289L1675.1 272.488L1679.78 270.49L1680.92 265.529L1671.18 263.289ZM1645.17 274.383V284.383H1647.21L1649.09 283.581L1645.17 274.383ZM1653.68 276.631L1696.33 91.7336L1676.84 87.2383L1634.19 272.136L1653.68 276.631ZM1690.51 98.6842L1716.52 87.5903L1708.67 69.1939L1682.66 80.2878L1690.51 98.6842ZM1712.59 88.3921H1713.83V68.3921H1712.59V88.3921ZM1704.08 76.1461L1680.41 178.826L1699.9 183.318L1723.57 80.6382L1704.08 76.1461ZM1696.76 188.581L1756.05 136.44L1742.85 121.421L1683.56 173.562L1696.76 188.581ZM1749.45 138.931H1750.68V118.931H1749.45V138.931ZM1746.01 137.771L1765.36 148.002L1774.71 130.321L1755.36 120.09L1746.01 137.771ZM1763.65 131.462L1718.29 169.058L1731.05 184.457L1776.42 146.861L1763.65 131.462ZM1723.32 186.665C1733.31 188.031 1739.7 191.204 1743.69 195.244L1757.92 181.198C1749.91 173.076 1738.88 168.606 1726.03 166.85L1723.32 186.665ZM1743.69 195.245C1748.21 199.826 1750.05 204.481 1750.05 209.546H1770.05C1770.05 198.669 1765.73 189.107 1757.92 181.197L1743.69 195.245ZM1750.05 209.546C1750.05 211.338 1749.83 213.28 1749.33 215.391L1768.8 219.972C1769.62 216.495 1770.05 213.013 1770.05 209.546H1750.05ZM1749.33 215.391C1747.39 223.621 1740.28 231.998 1723.8 239.368L1731.96 257.627C1751.14 249.055 1764.82 236.888 1768.8 219.972L1749.33 215.391ZM1727.88 258.498H1758.32V238.498H1727.88V258.498ZM1748.52 246.536L1748.27 247.769L1767.88 251.691L1768.13 250.459L1748.52 246.536ZM1749.89 243.996L1736.08 263.718L1752.46 275.187L1766.27 255.465L1749.89 243.996ZM1744.27 259.453H1686.58V279.453H1744.27V259.453ZM1696.39 271.414L1696.64 270.181L1677.03 266.259L1676.78 267.491L1696.39 271.414ZM1695.02 273.955L1708.83 254.232L1692.44 242.763L1678.64 262.485L1695.02 273.955ZM1703.44 258.096C1711.94 255.615 1719.79 251.653 1726.98 246.267L1714.98 230.267C1709.67 234.248 1703.97 237.107 1697.83 238.899L1703.44 258.096ZM1727.01 246.244C1735.89 239.526 1741.74 230.646 1744.17 219.881L1724.66 215.482C1723.3 221.481 1720.19 226.324 1714.95 230.289L1727.01 246.244ZM1744.16 219.898C1744.71 217.494 1745.03 215.058 1745.03 212.628H1725.03C1725.03 213.32 1724.94 214.253 1724.66 215.465L1744.16 219.898ZM1745.03 212.628C1745.03 205.579 1742.38 199.308 1737.41 194.339L1723.27 208.482C1724.55 209.758 1725.03 210.966 1725.03 212.628H1745.03ZM1737.41 194.339C1731.25 188.173 1722.08 186.48 1713.09 186.48V206.48C1720.53 206.48 1722.86 208.074 1723.27 208.482L1737.41 194.339ZM1713.09 186.48C1703.56 186.48 1694.77 189.244 1687 194.708L1698.5 211.072C1702.88 207.989 1707.65 206.48 1713.09 206.48V186.48ZM1686.98 194.723C1678.27 200.873 1673.07 210.237 1670.54 221.393L1690.05 225.803C1691.8 218.059 1694.9 213.617 1698.52 211.056L1686.98 194.723ZM1670.55 221.358L1661.43 261.05L1680.92 265.529L1690.04 225.838L1670.55 221.358ZM1667.25 254.091L1641.24 265.185L1649.09 283.581L1675.1 272.488L1667.25 254.091ZM1645.17 264.383H1643.93V284.383H1645.17V264.383ZM1823.11 271.918V281.918H1828.32L1831.31 277.653L1823.11 271.918ZM1786.75 243.444L1796.28 240.43L1796.28 240.418L1786.75 243.444ZM1787.37 201.657L1777.64 199.351L1777.63 199.376L1777.62 199.402L1787.37 201.657ZM1805.86 159.87L1813.74 166.027L1813.74 166.017L1805.86 159.87ZM1892.02 159.87L1901.6 157.024L1901.6 157.016L1901.6 157.008L1892.02 159.87ZM1891.28 201.657L1881.54 199.402L1881.54 199.403L1891.28 201.657ZM1880.55 248.005L1870.81 245.75L1870.81 245.769L1870.8 245.788L1880.55 248.005ZM1894.73 253.428L1904.54 255.389L1906.93 243.428H1894.73V253.428ZM1894.48 254.661L1902.68 260.395L1903.88 258.678L1904.29 256.622L1894.48 254.661ZM1880.68 274.383V284.383H1885.88L1888.87 280.118L1880.68 274.383ZM1855.9 248.005L1846.16 245.75L1846.16 245.763L1846.15 245.776L1855.9 248.005ZM1866.63 201.657L1876.37 203.911L1876.37 203.885L1876.38 203.86L1866.63 201.657ZM1869.21 168.622L1878.93 166.276L1878.89 166.098L1878.84 165.923L1869.21 168.622ZM1824.84 168.622L1832.9 174.544L1832.9 174.544L1824.84 168.622ZM1812.02 201.657L1802.28 199.393L1802.28 199.403L1812.02 201.657ZM1809.55 234.692L1819.2 232.042L1819.19 232.033L1809.55 234.692ZM1827.8 250.963L1827.71 260.963L1827.75 260.963H1827.8V250.963ZM1837.29 250.963L1846.87 253.836L1850.73 240.963H1837.29V250.963ZM1836.92 252.196L1845.11 257.93L1846.03 256.611L1846.5 255.069L1836.92 252.196ZM1823.11 261.918C1815.8 261.918 1810.5 260.051 1806.5 256.926C1802.44 253.742 1798.85 248.559 1796.28 240.43L1777.21 246.457C1780.64 257.311 1786.12 266.365 1794.17 272.673C1802.3 279.039 1812.19 281.918 1823.11 281.918V261.918ZM1796.28 240.418C1795 236.389 1794.28 231.6 1794.28 225.94H1774.28C1774.28 233.265 1775.21 240.145 1777.22 246.47L1796.28 240.418ZM1794.28 225.94C1794.28 219.544 1795.19 212.22 1797.11 203.912L1777.62 199.402C1775.44 208.844 1774.28 217.709 1774.28 225.94H1794.28ZM1797.1 203.963C1800.98 187.579 1806.65 175.097 1813.74 166.027L1797.98 153.714C1788.63 165.681 1781.97 181.056 1777.64 199.351L1797.1 203.963ZM1813.74 166.017C1827.27 148.655 1841.23 141.396 1855.65 141.396V121.396C1833.26 121.396 1814.02 133.12 1797.97 153.724L1813.74 166.017ZM1855.65 141.396C1863.18 141.396 1868.55 143.287 1872.51 146.388C1876.53 149.535 1880.02 154.656 1882.44 162.732L1901.6 157.008C1898.34 146.101 1892.94 136.986 1884.84 130.641C1876.68 124.25 1866.7 121.396 1855.65 121.396V141.396ZM1882.43 162.716C1883.68 166.912 1884.36 171.77 1884.36 177.374H1904.36C1904.36 170.158 1903.48 163.347 1901.6 157.024L1882.43 162.716ZM1884.36 177.374C1884.36 183.77 1883.46 191.094 1881.54 199.402L1901.02 203.912C1903.21 194.47 1904.36 185.605 1904.36 177.374H1884.36ZM1881.54 199.403L1870.81 245.75L1890.3 250.259L1901.02 203.911L1881.54 199.403ZM1870.8 245.788C1870.09 248.941 1869.74 254.203 1873.54 258.608C1877.16 262.8 1882.2 263.428 1885.24 263.428V243.428C1884.33 243.428 1886.62 243.153 1888.68 245.536C1890.92 248.133 1890.2 250.684 1890.31 250.221L1870.8 245.788ZM1885.24 263.428H1894.73V243.428H1885.24V263.428ZM1884.92 251.467L1884.68 252.7L1904.29 256.622L1904.54 255.389L1884.92 251.467ZM1886.29 248.926L1872.49 268.649L1888.87 280.118L1902.68 260.395L1886.29 248.926ZM1880.68 264.383C1872.99 264.383 1869.01 262.949 1867.19 261.637C1865.97 260.764 1864.92 259.447 1864.92 255.894H1844.92C1844.92 264.666 1848.15 272.594 1855.52 277.885C1862.28 282.736 1871.19 284.383 1880.68 284.383V264.383ZM1864.92 255.894C1864.92 254.413 1865.12 252.543 1865.65 250.233L1846.15 245.776C1845.37 249.218 1844.92 252.608 1844.92 255.894H1864.92ZM1865.64 250.259L1876.37 203.911L1856.88 199.403L1846.16 245.75L1865.64 250.259ZM1876.38 203.86C1878.75 193.349 1880.08 184.271 1880.08 176.881H1860.08C1860.08 182.145 1859.1 189.585 1856.87 199.454L1876.38 203.86ZM1880.08 176.881C1880.08 173.172 1879.74 169.603 1878.93 166.276L1859.49 170.968C1859.84 172.407 1860.08 174.345 1860.08 176.881H1880.08ZM1878.84 165.923C1876.99 159.308 1873.9 153.293 1868.92 148.912C1863.77 144.381 1857.46 142.351 1850.72 142.351V162.351C1853.28 162.351 1854.69 163.032 1855.7 163.926C1856.89 164.968 1858.4 167.088 1859.58 171.321L1878.84 165.923ZM1850.72 142.351C1837 142.351 1825.74 150.505 1816.78 162.7L1832.9 174.544C1839.88 165.044 1845.88 162.351 1850.72 162.351V142.351ZM1816.78 162.7C1810.55 171.182 1805.9 183.796 1802.28 199.393L1821.76 203.921C1825.2 189.112 1829.1 179.703 1832.9 174.544L1816.78 162.7ZM1802.28 199.403C1799.89 209.694 1798.57 218.66 1798.57 226.063H1818.57C1818.57 220.812 1819.54 213.507 1821.76 203.911L1802.28 199.403ZM1798.57 226.063C1798.57 230.03 1798.95 233.853 1799.91 237.351L1819.19 232.033C1818.84 230.765 1818.57 228.835 1818.57 226.063H1798.57ZM1799.91 237.342C1801.72 243.917 1804.76 249.909 1809.68 254.296C1814.76 258.832 1821.02 260.903 1827.71 260.963L1827.89 240.963C1825.37 240.941 1823.98 240.259 1822.99 239.371C1821.83 238.335 1820.35 236.232 1819.2 232.042L1799.91 237.342ZM1827.8 260.963H1837.29V240.963H1827.8V260.963ZM1827.71 248.089L1827.34 249.322L1846.5 255.069L1846.87 253.836L1827.71 248.089ZM1828.73 246.461L1814.92 266.183L1831.31 277.653L1845.11 257.93L1828.73 246.461ZM1949.16 274.383V284.383H1954.37L1957.36 280.118L1949.16 274.383ZM1924.39 248.005L1914.64 245.749L1914.64 245.763L1914.64 245.776L1924.39 248.005ZM1945.96 154.816L1955.7 157.072L1958.54 144.816H1945.96V154.816ZM1914.28 154.816L1904.47 152.855L1902.08 164.816H1914.28V154.816ZM1914.53 153.584L1906.33 147.849L1905.13 149.567L1904.72 151.623L1914.53 153.584ZM1928.33 133.861V123.861H1923.13L1920.14 128.127L1928.33 133.861ZM1950.77 133.861V143.861H1958.72L1960.51 136.108L1950.77 133.861ZM1961 89.486L1957.07 80.2878L1952.4 82.2833L1951.25 87.2394L1961 89.486ZM1987.01 78.3921V68.3921H1984.96L1983.08 69.1939L1987.01 78.3921ZM1988.24 78.3921L1997.98 80.6439L2000.81 68.3921H1988.24V78.3921ZM1975.42 133.861L1965.68 131.61L1962.84 143.861H1975.42V133.861ZM2007.1 133.861L2016.9 135.822L2019.3 123.861H2007.1V133.861ZM2006.85 135.094L2015.04 140.829L2016.25 139.111L2016.66 137.055L2006.85 135.094ZM1993.05 154.816V164.816H1998.25L2001.24 160.551L1993.05 154.816ZM1970.61 154.816V144.816H1962.66L1960.87 152.561L1970.61 154.816ZM1949.04 248.005L1939.3 245.749L1939.29 245.769L1939.29 245.788L1949.04 248.005ZM1963.22 253.428L1973.02 255.389L1975.41 243.428H1963.22V253.428ZM1962.97 254.661L1971.16 260.395L1972.36 258.678L1972.77 256.622L1962.97 254.661ZM1949.16 264.383C1941.47 264.383 1937.5 262.949 1935.67 261.637C1934.46 260.764 1933.4 259.447 1933.4 255.894H1913.4C1913.4 264.666 1916.64 272.594 1924.01 277.885C1930.77 282.736 1939.68 284.383 1949.16 284.383V264.383ZM1933.4 255.894C1933.4 254.413 1933.61 252.543 1934.14 250.233L1914.64 245.776C1913.85 249.218 1913.4 252.608 1913.4 255.894H1933.4ZM1934.13 250.26L1955.7 157.072L1936.22 152.561L1914.64 245.749L1934.13 250.26ZM1945.96 144.816H1914.28V164.816H1945.96V144.816ZM1924.09 156.778L1924.33 155.545L1904.72 151.623L1904.47 152.855L1924.09 156.778ZM1922.72 159.318L1936.52 139.596L1920.14 128.127L1906.33 147.849L1922.72 159.318ZM1928.33 143.861H1950.77V123.861H1928.33V143.861ZM1960.51 136.108L1970.74 91.7326L1951.25 87.2394L1941.02 131.615L1960.51 136.108ZM1964.92 98.6842L1990.93 87.5903L1983.08 69.1939L1957.07 80.2878L1964.92 98.6842ZM1987.01 88.3921H1988.24V68.3921H1987.01V88.3921ZM1978.5 76.1404L1965.68 131.61L1985.16 136.113L1997.98 80.6439L1978.5 76.1404ZM1975.42 143.861H2007.1V123.861H1975.42V143.861ZM1997.29 131.9L1997.05 133.133L2016.66 137.055L2016.9 135.822L1997.29 131.9ZM1998.66 129.359L1984.85 149.082L2001.24 160.551L2015.04 140.829L1998.66 129.359ZM1993.05 144.816H1970.61V164.816H1993.05V144.816ZM1960.87 152.561L1939.3 245.749L1958.78 250.26L1980.35 157.072L1960.87 152.561ZM1939.29 245.788C1938.57 248.941 1938.22 254.203 1942.03 258.608C1945.65 262.8 1950.68 263.428 1953.72 263.428V243.428C1952.82 243.428 1955.1 243.153 1957.16 245.536C1959.41 248.133 1958.69 250.684 1958.79 250.221L1939.29 245.788ZM1953.72 263.428H1963.22V243.428H1953.72V263.428ZM1953.41 251.467L1953.16 252.7L1972.77 256.622L1973.02 255.389L1953.41 251.467ZM1954.78 248.926L1940.97 268.649L1957.36 280.118L1971.16 260.395L1954.78 248.926ZM1986.34 243.814L1982.45 234.603L1974.1 238.133L1976.79 246.787L1986.34 243.814ZM2007.91 234.692V224.692H2005.88L2004.02 225.482L2007.91 234.692ZM2009.14 234.692L2018.79 232.061L2016.78 224.692H2009.14V234.692ZM2050.56 242.088L2057.39 249.392L2057.39 249.391L2050.56 242.088ZM2060.3 226.187L2070.02 228.515L2070.03 228.503L2060.3 226.187ZM2057.22 211.888L2064.29 204.817L2057.22 211.888ZM2039.71 204.492L2041.33 194.623L2041.31 194.62L2041.29 194.618L2039.71 204.492ZM2016.29 195.124L2009.76 202.692L2009.77 202.7L2016.29 195.124ZM2009.27 167.759L1999.51 165.552L1999.51 165.564L2009.27 167.759ZM2031.58 139.408L2026.31 130.906L2026.31 130.909L2031.58 139.408ZM2088.77 154.816L2092.67 164.027L2100.45 160.735L2098.5 152.512L2088.77 154.816ZM2067.2 163.938V173.938H2069.23L2071.1 173.148L2067.2 163.938ZM2065.97 163.938L2056.28 166.412L2058.2 173.938H2065.97V163.938ZM2041.19 156.049L2046.78 164.345L2046.8 164.328L2046.83 164.311L2041.19 156.049ZM2032.81 168.252L2023.11 165.827L2032.81 168.252ZM2036.39 179.1L2041.45 170.475L2041.41 170.454L2041.38 170.433L2036.39 179.1ZM2054.26 185.139L2052.09 194.901L2052.12 194.908L2052.15 194.914L2054.26 185.139ZM2077.68 196.11L2070.78 203.346L2070.78 203.351L2077.68 196.11ZM2084.09 227.543L2093.86 229.664L2093.86 229.651L2084.09 227.543ZM2062.89 258.112L2069.24 265.832L2069.25 265.826L2069.26 265.821L2062.89 258.112ZM1986.34 243.814C1990.23 253.024 1990.23 253.024 1990.23 253.024C1990.23 253.024 1990.23 253.024 1990.24 253.024C1990.24 253.024 1990.24 253.024 1990.24 253.023C1990.24 253.023 1990.24 253.023 1990.24 253.023C1990.24 253.023 1990.24 253.022 1990.24 253.022C1990.24 253.022 1990.24 253.022 1990.24 253.022C1990.24 253.021 1990.25 253.017 1990.26 253.015C1990.26 253.013 1990.3 252.996 1990.32 252.988C1990.34 252.979 1990.32 252.989 1990.34 252.979C1990.36 252.971 1990.33 252.982 1990.35 252.974C1990.35 252.974 1990.37 252.968 1990.37 252.968C1990.37 252.967 1990.37 252.966 1990.37 252.965C1990.38 252.965 1990.38 252.964 1990.38 252.963C1990.38 252.962 1990.38 252.961 1990.39 252.96C1990.39 252.959 1990.39 252.958 1990.39 252.957C1990.45 252.932 1990.36 252.969 1990.42 252.944C1990.43 252.943 1990.45 252.931 1990.46 252.93C1990.46 252.929 1990.46 252.927 1990.47 252.926C1990.47 252.925 1990.47 252.924 1990.47 252.922C1990.48 252.921 1990.48 252.92 1990.48 252.919C1990.49 252.917 1990.49 252.916 1990.49 252.915C1990.51 252.906 1990.51 252.908 1990.53 252.899C1990.56 252.885 1990.54 252.896 1990.57 252.881C1990.57 252.88 1990.66 252.846 1990.66 252.844C1990.66 252.843 1990.68 252.834 1990.69 252.833C1990.69 252.832 1990.71 252.824 1990.71 252.823C1990.71 252.821 1990.72 252.819 1990.72 252.818C1990.73 252.816 1990.73 252.814 1990.74 252.812C1990.74 252.81 1990.74 252.809 1990.75 252.807C1990.75 252.805 1990.76 252.803 1990.76 252.801C1990.77 252.799 1990.77 252.798 1990.77 252.796C1990.78 252.794 1990.78 252.792 1990.79 252.79C1990.79 252.788 1990.8 252.786 1990.8 252.784C1990.81 252.782 1990.81 252.78 1990.82 252.778C1990.83 252.77 1990.85 252.763 1990.87 252.754C1990.87 252.754 1990.93 252.731 1990.93 252.729C1991.04 252.685 1990.89 252.748 1990.99 252.703C1991 252.701 1991 252.699 1991.01 252.697C1991.01 252.694 1991.02 252.692 1991.03 252.69C1991.04 252.682 1991.04 252.684 1991.06 252.676C1991.06 252.674 1991.07 252.671 1991.07 252.669C1991.08 252.667 1991.09 252.664 1991.09 252.662C1991.11 252.653 1991.1 252.656 1991.12 252.648C1991.14 252.641 1991.25 252.595 1991.27 252.587C1991.28 252.583 1991.56 252.464 1991.58 252.454C1991.87 252.332 1992.76 251.958 1993.27 251.741C1993.5 251.645 1993.29 251.73 1993.53 251.632C1993.74 251.543 1993.45 251.665 1993.66 251.576C1993.72 251.55 1993.66 251.574 1993.73 251.547C1993.74 251.543 1993.75 251.538 1993.76 251.533C1993.77 251.528 1993.78 251.523 1993.79 251.519C1993.82 251.509 1993.91 251.47 1993.93 251.46C1994.03 251.419 1993.98 251.442 1994.07 251.401C1994.2 251.346 1994.09 251.394 1994.22 251.34C1994.24 251.33 1994.34 251.288 1994.36 251.278C1994.42 251.256 1995.52 250.79 1995.63 250.744C1995.64 250.738 1995.66 250.732 1995.67 250.726C1995.68 250.72 1995.7 250.714 1995.71 250.708C1995.72 250.704 1995.79 250.676 1995.8 250.672C1995.96 250.603 1995.81 250.668 1995.97 250.599C1996.01 250.582 1996.28 250.467 1996.32 250.45C1996.34 250.443 1996.35 250.437 1996.37 250.431C1996.38 250.424 1996.4 250.418 1996.41 250.412C1996.43 250.405 1996.44 250.399 1996.46 250.392C1996.47 250.386 1996.49 250.38 1996.5 250.373C1996.84 250.232 1996.35 250.438 1996.69 250.296C1996.82 250.24 1996.65 250.313 1996.78 250.257C1996.79 250.25 1996.81 250.244 1996.83 250.237C1996.84 250.231 1996.86 250.224 1996.87 250.217C1996.88 250.213 1997.05 250.142 1997.06 250.138C1997.57 249.922 1997.32 250.03 1997.84 249.808C1997.86 249.801 1997.87 249.794 1997.89 249.787C1997.91 249.78 1997.92 249.773 1997.94 249.766C1997.96 249.759 1997.97 249.752 1997.99 249.744C1998.01 249.737 1998.02 249.73 1998.04 249.723C1998.06 249.716 1998.07 249.709 1998.09 249.702C1998.11 249.694 1998.13 249.687 1998.14 249.68C1998.16 249.673 1998.18 249.666 1998.19 249.658C1998.21 249.651 1998.23 249.644 1998.24 249.637C1998.61 249.483 1998.29 249.616 1998.66 249.461C1998.74 249.426 1999 249.317 1999.09 249.28C1999.52 249.097 1999.09 249.28 1999.52 249.096C1999.98 248.903 1999.96 248.911 2000.43 248.713C2000.86 248.53 2000.93 248.5 2001.38 248.312C2001.4 248.303 2001.42 248.295 2001.44 248.286C2001.46 248.278 2001.48 248.269 2001.5 248.26C2001.56 248.237 2001.57 248.233 2001.62 248.209C2001.64 248.2 2001.66 248.191 2001.68 248.183C2001.7 248.174 2001.72 248.165 2001.74 248.157C2001.77 248.147 2001.84 248.115 2001.87 248.105C2001.92 248.082 2002.31 247.917 2002.37 247.893C2003.57 247.383 2005.32 246.645 2006.75 246.04C2007.63 245.667 2010.7 244.371 2011.81 243.902L2004.02 225.482C2003.52 225.69 2003.84 225.557 2003.35 225.764C2003.35 225.765 2003.18 225.834 2003.18 225.834C2003.14 225.853 2003.06 225.885 2003.02 225.904C2002.95 225.932 2002.92 225.946 2002.85 225.974C2002.83 225.985 2002.8 225.997 2002.77 226.008C2002.74 226.02 2002.72 226.031 2002.69 226.043C2002.44 226.15 2001.64 226.484 2001.4 226.586C2001.26 226.647 1999.05 227.582 1998.96 227.619C1998.82 227.681 1997.93 228.054 1997.8 228.109C1997.7 228.152 1996.77 228.545 1996.69 228.581C1996.28 228.752 1996 228.871 1995.61 229.036C1995.25 229.187 1994.92 229.327 1994.58 229.472C1994.56 229.481 1994.54 229.49 1994.52 229.499C1994.5 229.508 1994.47 229.517 1994.45 229.526C1994.41 229.545 1994.37 229.559 1994.33 229.579C1994.29 229.593 1994.24 229.617 1994.2 229.631C1994.17 229.647 1994.12 229.668 1994.08 229.684C1994.06 229.693 1994.04 229.701 1994.02 229.71C1994 229.719 1993.98 229.727 1993.96 229.736C1993.94 229.742 1993.85 229.782 1993.83 229.788C1993.81 229.797 1993.79 229.805 1993.77 229.814C1993.75 229.822 1993.73 229.831 1993.71 229.84C1993.69 229.848 1993.67 229.857 1993.65 229.865C1993.63 229.874 1993.61 229.882 1993.59 229.891C1993.5 229.927 1993.55 229.906 1993.47 229.942C1993.45 229.95 1993.43 229.959 1993.41 229.967C1993.39 229.976 1993.37 229.984 1993.35 229.993C1993.33 230.001 1993.31 230.01 1993.29 230.018C1993.27 230.027 1993.25 230.035 1993.23 230.043C1993.21 230.052 1993.19 230.06 1993.17 230.068C1993.15 230.077 1993.13 230.085 1993.11 230.094C1992.77 230.238 1993.22 230.049 1992.87 230.193C1992.79 230.23 1992.73 230.256 1992.64 230.292C1992.52 230.345 1992.31 230.434 1992.18 230.486C1991.66 230.705 1992.25 230.457 1991.74 230.675C1991.27 230.873 1991.98 230.57 1991.52 230.768C1991.43 230.802 1991.38 230.826 1991.3 230.86C1991.27 230.872 1991.22 230.893 1991.19 230.905C1991.04 230.971 1991.24 230.885 1991.08 230.95C1990.97 231 1990.99 230.99 1990.87 231.04C1989.94 231.436 1988.55 232.022 1987.84 232.323C1987.59 232.426 1986.76 232.777 1986.57 232.857C1986.47 232.901 1986.1 233.059 1986.01 233.098C1985.22 233.429 1986.25 232.995 1985.48 233.32C1985.32 233.386 1985.51 233.308 1985.35 233.373C1985.2 233.437 1985.44 233.336 1985.29 233.399C1985.17 233.451 1985.35 233.374 1985.23 233.425C1985.1 233.48 1985.12 233.472 1984.99 233.525C1984.96 233.54 1984.97 233.535 1984.94 233.55C1984.93 233.554 1984.92 233.558 1984.91 233.562C1984.9 233.566 1984.89 233.57 1984.88 233.574C1984.82 233.6 1984.83 233.595 1984.77 233.621C1984.65 233.672 1984.67 233.663 1984.55 233.712C1984.34 233.803 1983.95 233.966 1983.79 234.033C1983.47 234.168 1982.88 234.42 1982.78 234.461C1982.78 234.463 1982.77 234.467 1982.76 234.469C1982.73 234.482 1982.77 234.465 1982.74 234.478C1982.74 234.479 1982.74 234.481 1982.73 234.482C1982.73 234.483 1982.73 234.485 1982.72 234.486C1982.72 234.487 1982.7 234.494 1982.7 234.494C1982.7 234.495 1982.67 234.509 1982.67 234.509C1982.66 234.51 1982.66 234.511 1982.66 234.513C1982.66 234.514 1982.65 234.515 1982.65 234.516C1982.65 234.517 1982.65 234.518 1982.64 234.52C1982.64 234.521 1982.64 234.522 1982.63 234.523C1982.62 234.528 1982.59 234.544 1982.58 234.547C1982.52 234.572 1982.61 234.534 1982.55 234.558C1982.55 234.559 1982.55 234.56 1982.55 234.561C1982.54 234.561 1982.54 234.562 1982.54 234.563C1982.54 234.564 1982.54 234.564 1982.53 234.565C1982.53 234.566 1982.53 234.567 1982.53 234.568C1982.53 234.568 1982.51 234.576 1982.51 234.576C1982.46 234.597 1982.54 234.563 1982.49 234.583C1982.46 234.596 1982.51 234.577 1982.48 234.589C1982.48 234.59 1982.47 234.592 1982.47 234.592C1982.47 234.592 1982.47 234.593 1982.47 234.593C1982.47 234.593 1982.47 234.594 1982.47 234.594C1982.47 234.595 1982.46 234.595 1982.46 234.595C1982.46 234.596 1982.46 234.596 1982.46 234.596C1982.45 234.599 1982.46 234.595 1982.46 234.598C1982.46 234.598 1982.46 234.599 1982.46 234.599C1982.45 234.599 1982.45 234.599 1982.45 234.6C1982.45 234.6 1982.45 234.6 1982.45 234.6C1982.45 234.601 1982.45 234.601 1982.45 234.601C1982.45 234.601 1982.45 234.601 1982.45 234.601C1982.45 234.602 1982.45 234.602 1982.45 234.602C1982.45 234.602 1982.45 234.602 1982.45 234.602C1982.45 234.602 1982.45 234.603 1982.45 234.603C1982.45 234.603 1982.45 234.603 1982.45 234.603C1982.45 234.603 1982.45 234.603 1982.45 234.603C1982.45 234.603 1982.45 234.603 1982.45 234.603C1982.45 234.603 1982.45 234.603 1986.34 243.814ZM2007.91 244.692H2009.14V224.692H2007.91V244.692ZM1999.5 237.323C2001.31 243.958 2004.38 250.001 2009.38 254.402C2014.54 258.947 2020.88 260.963 2027.63 260.963V240.963C2025.02 240.963 2023.59 240.267 2022.59 239.388C2021.43 238.365 2019.94 236.273 2018.79 232.061L1999.5 237.323ZM2027.63 260.963C2039.03 260.963 2049.14 257.105 2057.39 249.392L2043.73 234.784C2039.32 238.904 2034.15 240.963 2027.63 240.963V260.963ZM2057.39 249.391C2063.68 243.509 2068.1 236.55 2070.02 228.515L2050.57 223.858C2049.7 227.492 2047.63 231.134 2043.73 234.785L2057.39 249.391ZM2070.03 228.503C2070.59 226.119 2070.92 223.695 2070.92 221.256H2050.92C2050.92 221.94 2050.83 222.803 2050.57 223.87L2070.03 228.503ZM2070.92 221.256C2070.92 215.07 2068.8 209.325 2064.29 204.817L2050.15 218.959C2050.57 219.382 2050.92 219.882 2050.92 221.256H2070.92ZM2064.29 204.817C2058.54 199.072 2050.31 196.09 2041.33 194.623L2038.1 214.361C2045.22 215.524 2048.66 217.472 2050.15 218.959L2064.29 204.817ZM2041.29 194.618C2032.04 193.136 2026.24 190.495 2022.82 187.548L2009.77 202.7C2017.03 208.956 2026.85 212.561 2038.13 214.366L2041.29 194.618ZM2022.83 187.556C2019.74 184.887 2018.16 181.593 2018.16 176.757H1998.16C1998.16 187.042 2002 195.993 2009.76 202.692L2022.83 187.556ZM2018.16 176.757C2018.16 174.937 2018.41 172.687 2019.02 169.954L1999.51 165.564C1998.65 169.406 1998.16 173.155 1998.16 176.757H2018.16ZM2019.02 169.966C2020.83 161.954 2026.18 154.521 2036.85 147.907L2026.31 130.909C2012.32 139.581 2002.8 151.048 1999.51 165.552L2019.02 169.966ZM2036.84 147.911C2043.98 143.491 2051.29 141.396 2058.94 141.396V121.396C2047.36 121.396 2036.43 124.642 2026.31 130.906L2036.84 147.911ZM2058.94 141.396C2065.43 141.396 2069.6 142.943 2072.37 145.117C2075.13 147.282 2077.57 150.913 2079.04 157.121L2098.5 152.512C2096.28 143.106 2091.9 135.027 2084.72 129.386C2077.54 123.752 2068.64 121.396 2058.94 121.396V141.396ZM2084.88 145.606L2063.31 154.728L2071.1 173.148L2092.67 164.027L2084.88 145.606ZM2067.2 153.938H2065.97V173.938H2067.2V153.938ZM2075.66 161.464C2074.4 156.55 2072.24 151.728 2068.46 148.067C2064.44 144.173 2059.38 142.351 2054.01 142.351V162.351C2054.43 162.351 2054.56 162.415 2054.53 162.402C2054.48 162.383 2054.47 162.361 2054.54 162.429C2054.75 162.629 2055.56 163.601 2056.28 166.412L2075.66 161.464ZM2054.01 142.351C2047.34 142.351 2041.04 144.049 2035.56 147.787L2046.83 164.311C2048.58 163.118 2050.83 162.351 2054.01 162.351V142.351ZM2035.61 147.753C2029.17 152.087 2024.99 158.307 2023.11 165.827L2042.51 170.678C2043.26 167.679 2044.67 165.763 2046.78 164.345L2035.61 147.753ZM2023.11 165.827C2022.63 167.734 2022.32 169.757 2022.32 171.827H2042.32C2042.32 171.76 2042.33 171.4 2042.51 170.678L2023.11 165.827ZM2022.32 171.827C2022.32 178.469 2025.4 184.312 2031.4 187.766L2041.38 170.433C2041.36 170.423 2041.45 170.477 2041.6 170.624C2041.76 170.776 2041.92 170.982 2042.06 171.229C2042.36 171.761 2042.32 172.076 2042.32 171.827H2022.32ZM2031.32 187.724C2036.48 190.752 2043.68 193.032 2052.09 194.901L2056.43 175.378C2048.57 173.631 2043.85 171.885 2041.45 170.475L2031.32 187.724ZM2052.15 194.914C2061.34 196.9 2067.22 199.951 2070.78 203.346L2084.58 188.874C2077.46 182.079 2067.72 177.816 2056.37 175.365L2052.15 194.914ZM2070.78 203.351C2073.64 206.068 2075.44 209.921 2075.44 216.079H2095.44C2095.44 205.473 2092.08 196.013 2084.58 188.869L2070.78 203.351ZM2075.44 216.079C2075.44 218.676 2075.1 221.777 2074.31 225.434L2093.86 229.651C2094.88 224.926 2095.44 220.385 2095.44 216.079H2075.44ZM2074.32 225.421C2072.65 233.082 2067.32 241.473 2056.52 250.404L2069.26 265.821C2082.12 255.193 2090.92 243.204 2093.86 229.664L2074.32 225.421ZM2056.53 250.393C2047.29 258.003 2036.19 261.918 2022.7 261.918V281.918C2040.44 281.918 2056.13 276.629 2069.24 265.832L2056.53 250.393ZM2022.7 261.918C2015.25 261.918 2009.9 260.053 2005.92 256.98C2001.89 253.862 1998.37 248.799 1995.89 240.84L1976.79 246.787C1980.15 257.564 1985.6 266.554 1993.69 272.804C2001.84 279.099 2011.75 281.918 2022.7 281.918V261.918ZM2231.59 128.931L2241.33 131.177L2244.16 118.931H2231.59V128.931ZM2214.82 201.657L2205.08 199.411L2205.08 199.419L2214.82 201.657ZM2196.33 243.444L2188.47 237.271L2188.46 237.276L2196.33 243.444ZM2110.3 243.444L2100.67 246.172L2100.68 246.181L2100.68 246.191L2110.3 243.444ZM2110.91 201.657L2101.18 199.373L2101.17 199.38L2101.17 199.388L2110.91 201.657ZM2146.04 154.816L2151.19 163.388L2182.1 144.816H2146.04V154.816ZM2115.6 154.816L2105.79 152.855L2103.4 164.816H2115.6V154.816ZM2115.84 153.584L2107.65 147.849L2106.45 149.567L2106.04 151.623L2115.84 153.584ZM2129.65 133.861V123.861H2124.44L2121.46 128.127L2129.65 133.861ZM2187.34 133.861L2197.14 135.822L2199.53 123.861H2187.34V133.861ZM2187.09 135.094L2195.28 140.829L2196.48 139.111L2196.89 137.055L2187.09 135.094ZM2173.28 154.816L2178.43 163.391L2180.25 162.296L2181.48 160.551L2173.28 154.816ZM2148.26 175.032L2140.4 168.845L2140.39 168.86L2140.38 168.875L2148.26 175.032ZM2135.56 201.657L2125.83 199.385L2125.82 199.394L2125.82 199.403L2135.56 201.657ZM2133.1 234.692L2142.75 232.061L2142.74 232.047L2142.74 232.033L2133.1 234.692ZM2177.47 234.692L2185.53 240.614L2185.54 240.605L2185.54 240.597L2177.47 234.692ZM2190.17 201.657L2199.91 203.909L2199.92 203.898L2190.17 201.657ZM2204.35 140.025L2200.42 130.826L2195.74 132.823L2194.6 137.783L2204.35 140.025ZM2230.36 128.931V118.931H2228.31L2226.43 119.733L2230.36 128.931ZM2221.84 126.685L2205.08 199.411L2224.57 203.903L2241.33 131.177L2221.84 126.685ZM2205.08 199.419C2201.37 215.57 2195.71 228.036 2188.47 237.271L2204.2 249.617C2213.72 237.485 2220.39 222.094 2224.57 203.895L2205.08 199.419ZM2188.46 237.276C2174.83 254.68 2160.9 261.918 2146.66 261.918V281.918C2168.9 281.918 2188.09 270.173 2204.21 249.611L2188.46 237.276ZM2146.66 261.918C2138.97 261.918 2133.56 260.009 2129.62 256.926C2125.64 253.808 2122.21 248.733 2119.91 240.697L2100.68 246.191C2103.81 257.138 2109.15 266.3 2117.29 272.673C2125.47 279.081 2135.52 281.918 2146.66 281.918V261.918ZM2119.92 240.716C2118.64 236.207 2117.95 231.138 2117.95 225.447H2097.95C2097.95 232.74 2098.83 239.669 2100.67 246.172L2119.92 240.716ZM2117.95 225.447C2117.95 218.934 2118.82 211.772 2120.65 203.926L2101.17 199.388C2099.06 208.47 2097.95 217.168 2097.95 225.447H2117.95ZM2120.65 203.941C2124.67 186.787 2134.6 173.357 2151.19 163.388L2140.89 146.245C2120.01 158.792 2106.52 176.589 2101.18 199.373L2120.65 203.941ZM2146.04 144.816H2115.6V164.816H2146.04V144.816ZM2125.4 156.778L2125.65 155.545L2106.04 151.623L2105.79 152.855L2125.4 156.778ZM2124.03 159.318L2137.84 139.596L2121.46 128.127L2107.65 147.849L2124.03 159.318ZM2129.65 143.861H2187.34V123.861H2129.65V143.861ZM2177.53 131.9L2177.28 133.133L2196.89 137.055L2197.14 135.822L2177.53 131.9ZM2178.9 129.359L2165.09 149.082L2181.48 160.551L2195.28 140.829L2178.9 129.359ZM2168.14 146.241C2156.14 153.438 2146.65 160.916 2140.4 168.845L2156.12 181.219C2160.23 175.999 2167.41 170 2178.43 163.391L2168.14 146.241ZM2140.38 168.875C2133.31 177.922 2128.45 188.126 2125.83 199.385L2145.3 203.929C2147.28 195.466 2150.88 187.919 2156.14 181.188L2140.38 168.875ZM2125.82 199.403C2123.44 209.694 2122.11 218.66 2122.11 226.063H2142.11C2142.11 220.812 2143.09 213.507 2145.31 203.911L2125.82 199.403ZM2122.11 226.063C2122.11 230.03 2122.49 233.853 2123.46 237.351L2142.74 232.033C2142.39 230.765 2142.11 228.835 2142.11 226.063H2122.11ZM2123.45 237.323C2125.26 243.958 2128.33 250.001 2133.33 254.402C2138.5 258.947 2144.84 260.963 2151.59 260.963V240.963C2148.97 240.963 2147.55 240.267 2146.55 239.388C2145.38 238.365 2143.9 236.273 2142.75 232.061L2123.45 237.323ZM2151.59 260.963C2165.31 260.963 2176.57 252.809 2185.53 240.614L2169.42 228.77C2162.44 238.269 2156.44 240.963 2151.59 240.963V260.963ZM2185.54 240.597C2191.7 232.185 2196.3 219.558 2199.91 203.909L2180.43 199.405C2176.98 214.326 2173.11 223.722 2169.4 228.787L2185.54 240.597ZM2199.92 203.898L2214.09 142.266L2194.6 137.783L2180.43 199.416L2199.92 203.898ZM2208.27 149.223L2234.28 138.129L2226.43 119.733L2200.42 130.826L2208.27 149.223ZM2230.36 138.931H2231.59V118.931H2230.36V138.931ZM2232.4 274.383L2222.66 272.136L2219.83 284.383H2232.4V274.383ZM2275.05 89.486L2271.13 80.2878L2266.45 82.283L2265.31 87.2383L2275.05 89.486ZM2301.06 78.3921V68.3921H2299.02L2297.14 69.1939L2301.06 78.3921ZM2302.29 78.3921L2312.04 80.6382L2314.86 68.3921H2302.29V78.3921ZM2278.63 181.072L2268.88 178.826L2261.9 209.093L2285.23 188.581L2278.63 181.072ZM2337.92 128.931V118.931H2334.14L2331.31 121.421L2337.92 128.931ZM2339.15 128.931L2343.82 120.09L2341.63 118.931H2339.15V128.931ZM2358.5 139.162L2364.88 146.861L2376.4 137.314L2363.17 130.321L2358.5 139.162ZM2313.14 176.757L2306.76 169.058L2289.23 183.583L2311.79 186.665L2313.14 176.757ZM2339.27 188.221L2332.15 195.244L2332.15 195.245L2339.27 188.221ZM2347.53 217.681L2357.26 219.972L2347.53 217.681ZM2316.34 248.498L2312.26 239.368L2316.34 258.498V248.498ZM2346.79 248.498L2356.6 250.459L2358.99 238.498H2346.79V248.498ZM2346.54 249.73L2354.74 255.465L2355.94 253.747L2356.35 251.691L2346.54 249.73ZM2332.74 269.453V279.453H2337.95L2340.93 275.187L2332.74 269.453ZM2275.05 269.453L2265.25 267.491L2262.85 279.453H2275.05V269.453ZM2275.3 268.22L2267.11 262.485L2265.9 264.203L2265.49 266.259L2275.3 268.22ZM2289.1 248.498L2286.3 238.899L2282.93 239.884L2280.91 242.763L2289.1 248.498ZM2309.44 238.267L2315.44 246.267L2315.46 246.256L2315.47 246.244L2309.44 238.267ZM2322.88 217.681L2313.13 215.465L2313.12 215.473L2313.12 215.482L2322.88 217.681ZM2281.21 202.89L2275.46 194.708L2275.45 194.715L2275.44 194.723L2281.21 202.89ZM2268.76 223.598L2278.51 225.838L2278.51 225.821L2278.52 225.803L2268.76 223.598ZM2259.64 263.289L2263.57 272.488L2268.25 270.49L2269.39 265.529L2259.64 263.289ZM2233.63 274.383V284.383H2235.68L2237.56 283.581L2233.63 274.383ZM2242.15 276.631L2284.8 91.7336L2265.31 87.2383L2222.66 272.136L2242.15 276.631ZM2278.97 98.6842L2304.98 87.5903L2297.14 69.1939L2271.13 80.2878L2278.97 98.6842ZM2301.06 88.3921H2302.29V68.3921H2301.06V88.3921ZM2292.55 76.1461L2268.88 178.826L2288.37 183.318L2312.04 80.6382L2292.55 76.1461ZM2285.23 188.581L2344.52 136.44L2331.31 121.421L2272.02 173.562L2285.23 188.581ZM2337.92 138.931H2339.15V118.931H2337.92V138.931ZM2334.47 137.771L2353.83 148.002L2363.17 130.321L2343.82 120.09L2334.47 137.771ZM2352.12 131.462L2306.76 169.058L2319.52 184.457L2364.88 146.861L2352.12 131.462ZM2311.79 186.665C2321.78 188.031 2328.17 191.204 2332.15 195.244L2346.39 181.198C2338.38 173.076 2327.35 168.606 2314.49 166.85L2311.79 186.665ZM2332.15 195.245C2336.67 199.826 2338.52 204.481 2338.52 209.546H2358.52C2358.52 198.669 2354.2 189.107 2346.39 181.197L2332.15 195.245ZM2338.52 209.546C2338.52 211.338 2338.29 213.28 2337.8 215.391L2357.26 219.972C2358.08 216.495 2358.52 213.013 2358.52 209.546H2338.52ZM2337.8 215.391C2335.86 223.621 2328.75 231.998 2312.26 239.368L2320.43 257.627C2339.6 249.055 2353.28 236.888 2357.26 219.972L2337.8 215.391ZM2316.34 258.498H2346.79V238.498H2316.34V258.498ZM2336.99 246.536L2336.74 247.769L2356.35 251.691L2356.6 250.459L2336.99 246.536ZM2338.35 243.996L2324.55 263.718L2340.93 275.187L2354.74 255.465L2338.35 243.996ZM2332.74 259.453H2275.05V279.453H2332.74V259.453ZM2284.86 271.414L2285.1 270.181L2265.49 266.259L2265.25 267.491L2284.86 271.414ZM2283.49 273.955L2297.3 254.232L2280.91 242.763L2267.11 262.485L2283.49 273.955ZM2291.91 258.096C2300.4 255.615 2308.26 251.653 2315.44 246.267L2303.44 230.267C2298.13 234.248 2292.43 237.107 2286.3 238.899L2291.91 258.096ZM2315.47 246.244C2324.36 239.526 2330.21 230.646 2332.63 219.881L2313.12 215.482C2311.77 221.481 2308.66 226.324 2303.41 230.289L2315.47 246.244ZM2332.63 219.898C2333.18 217.494 2333.49 215.058 2333.49 212.628H2313.49C2313.49 213.32 2313.4 214.253 2313.13 215.465L2332.63 219.898ZM2333.49 212.628C2333.49 205.579 2330.85 199.308 2325.88 194.339L2311.74 208.482C2313.02 209.758 2313.49 210.966 2313.49 212.628H2333.49ZM2325.88 194.339C2319.71 188.173 2310.55 186.48 2301.55 186.48V206.48C2308.99 206.48 2311.33 208.074 2311.74 208.482L2325.88 194.339ZM2301.55 186.48C2292.03 186.48 2283.24 189.244 2275.46 194.708L2286.96 211.072C2291.35 207.989 2296.12 206.48 2301.55 206.48V186.48ZM2275.44 194.723C2266.74 200.873 2261.53 210.237 2259.01 221.393L2278.52 225.803C2280.27 218.059 2283.36 213.617 2286.99 211.056L2275.44 194.723ZM2259.02 221.358L2249.9 261.05L2269.39 265.529L2278.51 225.838L2259.02 221.358ZM2255.72 254.091L2229.71 265.185L2237.56 283.581L2263.57 272.488L2255.72 254.091ZM2233.63 264.383H2232.4V284.383H2233.63V264.383ZM2403.81 96.019L2394.08 93.7286L2394.06 93.7891L2394.05 93.8497L2403.81 96.019ZM2431.67 85.295L2423.56 91.1499L2423.58 91.1726L2423.6 91.1951L2431.67 85.295ZM2433.52 96.019L2443.14 98.7422L2443.22 98.4673L2443.28 98.1883L2433.52 96.019ZM2426.74 106.62L2433.07 114.359L2433.09 114.346L2433.1 114.334L2426.74 106.62ZM2405.54 106.497L2413.62 100.602L2413.58 100.549L2413.54 100.497L2405.54 106.497ZM2396.05 274.383V284.383H2401.25L2404.24 280.118L2396.05 274.383ZM2371.27 248.005L2361.53 245.758L2361.52 245.767L2361.52 245.776L2371.27 248.005ZM2396.17 140.025L2392.25 130.826L2387.57 132.822L2386.43 137.778L2396.17 140.025ZM2422.18 128.931V118.931H2420.14L2418.26 119.733L2422.18 128.931ZM2423.41 128.931L2433.16 131.18L2435.98 118.931H2423.41V128.931ZM2395.92 248.005L2386.18 245.755L2386.18 245.772L2386.17 245.788L2395.92 248.005ZM2410.1 253.428L2419.91 255.389L2422.3 243.428H2410.1V253.428ZM2409.85 254.661L2418.05 260.395L2419.25 258.678L2419.66 256.622L2409.85 254.661ZM2413.55 98.3094C2414 96.374 2415.01 94.6376 2417.01 92.9626L2404.17 77.6274C2399.11 81.8691 2395.6 87.282 2394.08 93.7286L2413.55 98.3094ZM2417.01 92.9626C2418.94 91.3503 2420.57 90.8574 2422.18 90.8574V70.8574C2415.4 70.8574 2409.31 73.323 2404.17 77.6274L2417.01 92.9626ZM2422.18 90.8574C2423.1 90.8574 2423.44 91.0175 2423.46 91.0256C2423.47 91.0322 2423.47 91.0287 2423.46 91.0211C2423.45 91.015 2423.49 91.0447 2423.56 91.1499L2439.78 79.4401C2435.46 73.4647 2429.03 70.8574 2422.18 70.8574V90.8574ZM2423.6 91.1951C2423.96 91.6901 2424.01 91.9811 2424.01 92.3211H2444.01C2444.01 87.5661 2442.51 83.1731 2439.75 79.3948L2423.6 91.1951ZM2424.01 92.3211C2424.01 92.2756 2424.02 92.3779 2423.98 92.6635C2423.94 92.9419 2423.87 93.3324 2423.76 93.8497L2443.28 98.1883C2443.69 96.333 2444.01 94.3153 2444.01 92.3211H2424.01ZM2423.9 93.2958C2423.18 95.8236 2422 97.5703 2420.38 98.9061L2433.1 114.334C2438.06 110.246 2441.39 104.925 2443.14 98.7422L2423.9 93.2958ZM2420.41 98.8802C2418.36 100.555 2416.65 101.057 2415.03 101.057V121.057C2421.8 121.057 2427.89 118.601 2433.07 114.359L2420.41 98.8802ZM2415.03 101.057C2414.22 101.057 2413.93 100.913 2413.91 100.904C2413.89 100.894 2413.87 100.885 2413.84 100.862C2413.82 100.838 2413.74 100.764 2413.62 100.602L2397.46 112.391C2401.75 118.275 2408.07 121.057 2415.03 121.057V101.057ZM2413.54 100.497C2413.39 100.294 2413.35 100.188 2413.34 100.168C2413.34 100.152 2413.32 100.101 2413.32 99.9635H2393.32C2393.32 104.589 2394.81 108.857 2397.54 112.497L2413.54 100.497ZM2413.32 99.9635C2413.32 99.7303 2413.36 99.1654 2413.58 98.1883L2394.05 93.8497C2393.61 95.831 2393.32 97.8957 2393.32 99.9635H2413.32ZM2396.05 264.383C2388.36 264.383 2384.39 262.949 2382.56 261.637C2381.34 260.764 2380.29 259.447 2380.29 255.894H2360.29C2360.29 264.666 2363.52 272.594 2370.9 277.885C2377.65 282.736 2386.56 284.383 2396.05 284.383V264.383ZM2380.29 255.894C2380.29 254.413 2380.49 252.543 2381.02 250.233L2361.52 245.776C2360.74 249.218 2360.29 252.608 2360.29 255.894H2380.29ZM2381.02 250.252L2405.92 142.272L2386.43 137.778L2361.53 245.758L2381.02 250.252ZM2400.09 149.223L2426.1 138.129L2418.26 119.733L2392.25 130.826L2400.09 149.223ZM2422.18 138.931H2423.41V118.931H2422.18V138.931ZM2413.67 126.681L2386.18 245.755L2405.67 250.254L2433.16 131.18L2413.67 126.681ZM2386.17 245.788C2385.46 248.941 2385.11 254.203 2388.91 258.608C2392.53 262.8 2397.57 263.428 2400.61 263.428V243.428C2399.7 243.428 2401.99 243.153 2404.05 245.536C2406.29 248.133 2405.57 250.684 2405.68 250.221L2386.17 245.788ZM2400.61 263.428H2410.1V243.428H2400.61V263.428ZM2400.29 251.467L2400.05 252.7L2419.66 256.622L2419.91 255.389L2400.29 251.467ZM2401.66 248.926L2387.86 268.649L2404.24 280.118L2418.05 260.395L2401.66 248.926ZM2424.23 269.453H2414.23V279.453H2424.23V269.453ZM2424.23 247.868V237.868H2414.23V247.868H2424.23ZM2445.81 247.868H2455.81V237.868H2445.81V247.868ZM2445.81 269.453V279.453H2455.81V269.453H2445.81ZM2434.23 269.453V247.868H2414.23V269.453H2434.23ZM2424.23 257.868H2445.81V237.868H2424.23V257.868ZM2435.81 247.868V269.453H2455.81V247.868H2435.81ZM2445.81 259.453H2424.23V279.453H2445.81V259.453Z" fill="#FAFAFA"/>
</svg>
