<svg width="1446" height="197" viewBox="0 0 1446 197" fill="none" xmlns="http://www.w3.org/2000/svg">
<g clip-path="url(#clip0_675_183)">
<rect x="155.949" y="76.0645" width="20.7477" height="46.6455" rx="10.3738" fill="#141414"/>
<rect x="276.292" y="76.0645" width="20.7477" height="46.6455" rx="10.3738" fill="#141414"/>
<rect x="324.047" y="91.3379" width="44.9521" height="12.6614" fill="#9629EC"/>
<path fill-rule="evenodd" clip-rule="evenodd" d="M318.43 47.0469H134.56C105.653 47.0469 82.2188 70.481 82.2188 99.3886C82.2188 128.296 105.653 151.73 134.56 151.73H318.43C347.338 151.73 370.772 128.296 370.772 99.3886C370.772 96.6531 370.562 93.9666 370.157 91.3443H358.382C358.903 93.9449 359.176 96.6348 359.176 99.3886C359.176 121.892 340.934 140.135 318.43 140.135H134.56C112.057 140.135 93.8142 121.892 93.8142 99.3886C93.8142 76.885 112.057 58.6423 134.56 58.6423H318.43C331.111 58.6423 342.439 64.4352 349.912 73.519H363.942C354.936 57.708 337.928 47.0469 318.43 47.0469Z" fill="#9629EC"/>
<path d="M434.712 154.284C424.843 154.284 415.822 151.892 407.649 147.107C399.475 142.223 392.946 135.694 388.062 127.521C383.277 119.347 380.885 110.326 380.885 100.458C380.885 90.4899 383.277 81.4689 388.062 73.395C392.946 65.2213 399.425 58.7422 407.499 53.9576C415.673 49.0734 424.694 46.6312 434.562 46.6312C444.53 46.6312 453.551 49.0734 461.625 53.9576C469.798 58.7422 476.278 65.2213 481.062 73.395C485.946 81.5686 488.389 90.5895 488.389 100.458C488.389 110.625 485.996 119.795 481.212 127.969C476.427 136.043 469.948 142.472 461.774 147.257C453.7 151.942 444.679 154.284 434.712 154.284ZM434.712 142.323C446.274 142.323 456.142 138.236 464.316 130.062C472.49 121.789 476.577 111.921 476.577 100.458C476.577 88.895 472.49 79.0268 464.316 70.8532C456.142 62.6795 446.274 58.5927 434.712 58.5927C423.248 58.5927 413.38 62.6795 405.107 70.8532C396.933 79.0268 392.846 88.895 392.846 100.458C392.846 111.921 396.933 121.789 405.107 130.062C413.38 138.236 423.248 142.323 434.712 142.323ZM570.546 152.789H506.702C505.008 152.789 503.562 152.191 502.366 150.995C501.27 149.799 500.721 148.403 500.721 146.808C500.721 145.114 501.27 143.718 502.366 142.622C503.562 141.426 505.008 140.828 506.702 140.828H570.247C571.742 140.828 574.035 140.529 577.125 139.931C586.096 138.336 590.582 132.704 590.582 123.035C590.582 117.951 589.136 114.164 586.246 111.672C583.355 109.08 580.215 107.535 576.826 107.037C573.537 106.438 571.294 106.139 570.098 106.139H525.392C520.906 106.139 516.271 105.093 511.487 103C502.117 98.9127 496.983 90.8886 496.086 78.9271V78.1795C496.086 70.5043 498.08 64.1747 502.067 59.1907C507.051 52.911 514.078 49.2727 523.149 48.2759C524.545 48.1762 532.967 48.1264 548.418 48.1264C550.112 48.1264 551.508 48.7245 552.604 49.9206C553.8 51.0171 554.398 52.4126 554.398 54.1071C554.398 55.8017 553.8 57.247 552.604 58.4432C551.508 59.6393 550.112 60.2374 548.418 60.2374C532.967 60.2374 524.495 60.3371 523 60.5364C518.813 60.9351 515.275 62.6297 512.384 65.62C509.493 68.5107 508.048 72.5975 508.048 77.8805C508.048 84.559 510.739 89.2937 516.122 92.0847C518.614 93.2809 521.205 93.9288 523.897 94.0285C524.794 94.1281 540.244 94.178 570.247 94.178C579.717 94.178 587.442 96.7198 593.423 101.803C599.503 106.787 602.543 113.865 602.543 123.035C602.543 132.405 599.603 139.731 593.722 145.014C587.94 150.197 580.215 152.789 570.546 152.789Z" fill="#141414"/>
<path d="M637.568 151.818L682.424 105.617L680.331 115.336L655.959 71.9757H675.397L693.04 103.973L684.368 103.823L714.869 71.9757H735.802L692.89 116.532L694.385 106.215L720.252 151.818H700.516L682.125 118.476H690.647L659.099 151.818H637.568Z" fill="#9629EC"/>
<path d="M795.02 153.574C783.734 153.574 776.235 147.702 772.524 135.959C771.507 132.756 770.999 129.146 770.999 125.13C770.999 120.605 771.635 115.598 772.905 110.107C775.447 99.3805 779.26 90.7635 784.344 84.2562C793.495 72.5126 803.764 66.6408 815.152 66.6408C826.641 66.6408 834.14 72.5126 837.648 84.2562C838.614 87.5098 839.097 91.1193 839.097 95.0847C839.097 99.6093 838.461 104.617 837.19 110.107L830.556 138.78C830.048 141.017 831.013 142.135 833.454 142.135H839.325L839.173 142.898L830.632 155.099C820.007 155.099 814.694 151.286 814.694 143.661C814.694 142.186 814.898 140.559 815.304 138.78L821.939 110.107C823.362 103.803 824.074 98.6942 824.074 94.7797C824.074 92.8478 823.896 91.1447 823.54 89.6704C821.659 82.9598 817.846 79.6045 812.102 79.6045C806.357 79.6045 801.019 82.9598 796.088 89.6704C792.987 93.89 790.343 100.702 788.157 110.107C786.733 116.259 786.022 121.292 786.022 125.206C786.022 127.291 786.225 129.07 786.632 130.544C788.462 137.204 792.224 140.559 797.918 140.61H803.79L803.561 141.373L795.02 153.574ZM848.065 155.099L874.45 40.7133L890.54 33.8502H891.302L876.661 97.3724L913.341 65.1156H914.103L926.076 71.445L898.013 94.7034C905.08 95.6693 910.468 98.0333 914.18 101.795C917.992 105.659 919.899 110.057 919.899 114.988C919.899 116.615 919.696 118.292 919.289 120.021C917.459 127.799 911.028 134.154 899.996 139.085H918.831L918.679 139.848L910.138 152.049H874.45L874.602 151.286L883.143 139.085C887.667 137.763 891.862 135.654 895.725 132.756C900.097 129.451 902.868 125.206 904.037 120.021C904.292 118.902 904.419 117.86 904.419 116.894C904.419 114.2 903.453 111.887 901.521 109.955C899.487 107.921 895.929 106.905 890.845 106.905C886.219 106.905 882.024 108.226 878.262 110.87C874.45 113.564 871.882 117.835 870.56 123.681L864.917 148.236L848.827 155.099H848.065ZM958.912 153.574C947.626 153.574 940.127 147.702 936.416 135.959C935.399 132.756 934.891 129.146 934.891 125.13C934.891 120.605 935.527 115.598 936.797 110.107C939.339 99.3805 943.152 90.7635 948.236 84.2562C957.387 72.5126 967.656 66.6408 979.044 66.6408C990.533 66.6408 998.032 72.5126 1001.54 84.2562C1002.51 87.5098 1002.99 91.1193 1002.99 95.0847C1002.99 99.6093 1002.35 104.617 1001.08 110.107L994.448 138.78C993.94 141.017 994.905 142.135 997.346 142.135H1003.22L1003.06 142.898L994.524 155.099C983.899 155.099 978.586 151.286 978.586 143.661C978.586 142.186 978.79 140.559 979.196 138.78L985.831 110.107C987.254 103.803 987.966 98.6942 987.966 94.7797C987.966 92.8478 987.788 91.1447 987.432 89.6704C985.551 82.9598 981.738 79.6045 975.994 79.6045C970.249 79.6045 964.911 82.9598 959.98 89.6704C956.879 93.89 954.235 100.702 952.049 110.107C950.625 116.259 949.914 121.292 949.914 125.206C949.914 127.291 950.117 129.07 950.524 130.544C952.354 137.204 956.116 140.559 961.81 140.61H967.682L967.453 141.373L958.912 153.574ZM1036.89 155.099C1026.27 155.099 1020.95 151.286 1020.95 143.661C1020.95 142.186 1021.16 140.559 1021.56 138.78L1034.91 81.1296H1015.31L1015.46 80.3671L1024.01 68.1659H1037.88L1044.21 40.7133L1060.3 33.8502H1061.07L1053.14 68.1659H1072.73L1072.58 68.9285L1064.04 81.1296H1050.16L1036.82 138.78C1036.31 141.017 1037.27 142.135 1039.71 142.135H1045.59L1045.43 142.898L1036.89 155.099ZM1059.89 136.187C1059.89 136.187 1064.34 134.306 1073.24 130.544H1074C1075.83 137.255 1079.64 140.61 1085.44 140.61C1090.98 140.61 1095.71 138.78 1099.62 135.12C1102.77 132.171 1104.78 128.892 1105.65 125.283C1105.9 124.215 1106.03 123.198 1106.03 122.232C1106.03 119.894 1105.26 117.962 1103.74 116.437C1101.5 114.2 1097.89 112.675 1092.91 111.861C1086.56 110.845 1081.73 108.913 1078.42 106.066C1075.07 103.168 1073.39 99.3805 1073.39 94.7034C1073.39 93.0258 1073.62 91.1702 1074.08 89.1366C1075.65 82.1718 1080.25 76.3254 1087.88 71.5975C1093.22 68.293 1098.86 66.6408 1104.81 66.6408C1114.82 66.6408 1120.97 71.4704 1123.26 81.1296L1109.92 86.7727H1109.15C1107.93 81.9939 1105.47 79.6045 1101.76 79.6045C1098.71 79.6045 1096.06 80.3671 1093.83 81.8922C1091.18 83.6715 1089.45 86.188 1088.64 89.4417C1088.44 90.2551 1088.34 90.9922 1088.34 91.6531C1088.34 93.6866 1089.17 95.1864 1090.85 96.1523C1093.19 97.5249 1096.88 98.7705 1101.91 99.8889C1108.26 101.262 1113.09 103.524 1116.4 106.676C1119.6 109.726 1121.2 113.844 1121.2 119.029C1121.2 121.165 1120.92 123.529 1120.36 126.121C1118.94 132.679 1114.57 138.983 1107.25 145.033C1100.33 150.727 1092.05 153.574 1082.39 153.574C1071 153.574 1063.5 147.778 1059.89 136.187ZM1211.61 65.1156L1201.24 110.107C1198.8 120.733 1194.99 129.35 1189.8 135.959C1180.6 147.702 1170.36 153.574 1159.07 153.574C1147.43 153.574 1139.93 147.702 1136.58 135.959C1135.61 132.552 1135.13 128.841 1135.13 124.825C1135.13 120.25 1135.74 115.344 1136.96 110.107C1139.86 97.7537 1147.1 88.0945 1158.69 81.1296H1139.86L1140.01 80.3671L1148.55 68.1659H1184.24L1184.08 68.9285L1175.54 81.1296C1168.43 85.4 1163.27 89.5688 1160.06 93.6358C1156.25 98.5163 1153.63 104.007 1152.21 110.107C1150.79 116.259 1150.07 121.292 1150.07 125.206C1150.07 127.291 1150.28 129.07 1150.68 130.544C1152.51 137.255 1156.33 140.61 1162.12 140.61C1167.87 140.61 1173.2 137.255 1178.14 130.544C1181.19 126.376 1183.8 119.563 1185.99 110.107L1194.76 71.9788L1210.85 65.1156H1211.61ZM1212.12 155.099L1238.5 40.7133L1254.59 33.8502H1255.35L1240.71 97.3724L1277.39 65.1156H1278.16L1290.13 71.445L1262.06 94.7034C1269.13 95.6693 1274.52 98.0333 1278.23 101.795C1282.04 105.659 1283.95 110.057 1283.95 114.988C1283.95 116.615 1283.75 118.292 1283.34 120.021C1281.51 127.799 1275.08 134.154 1264.05 139.085H1282.88L1282.73 139.848L1274.19 152.049H1238.5L1238.65 151.286L1247.19 139.085C1251.72 137.763 1255.91 135.654 1259.78 132.756C1264.15 129.451 1266.92 125.206 1268.09 120.021C1268.34 118.902 1268.47 117.86 1268.47 116.894C1268.47 114.2 1267.5 111.887 1265.57 109.955C1263.54 107.921 1259.98 106.905 1254.9 106.905C1250.27 106.905 1246.08 108.226 1242.31 110.87C1238.5 113.564 1235.93 117.835 1234.61 123.681L1228.97 148.236L1212.88 155.099H1212.12ZM1318.16 44.7549C1318.77 42.1622 1320.17 39.9507 1322.35 38.1206C1324.54 36.2904 1326.93 35.3753 1329.52 35.3753C1332.11 35.3753 1334.07 36.2904 1335.39 38.1206C1336.36 39.4424 1336.84 40.8912 1336.84 42.4672C1336.84 43.0773 1336.74 43.8399 1336.54 44.7549C1335.78 47.4494 1334.38 49.6354 1332.34 51.3131C1330.11 53.1432 1327.69 54.0583 1325.1 54.0583C1322.56 54.0583 1320.6 53.1178 1319.23 51.2368C1318.31 50.0167 1317.85 48.6695 1317.85 47.1952C1317.85 46.4834 1317.96 45.67 1318.16 44.7549ZM1313.36 155.099C1302.73 155.099 1297.42 151.286 1297.42 143.661C1297.42 142.186 1297.62 140.559 1298.03 138.78L1313.43 71.9788L1329.52 65.1156H1330.28L1313.28 138.78C1312.77 141.017 1313.74 142.135 1316.18 142.135H1322.05L1321.9 142.898L1313.36 155.099Z" fill="#141414"/>
<path d="M1333.15 144.271C1333.76 141.678 1335.16 139.466 1337.35 137.636C1339.53 135.806 1341.92 134.891 1344.51 134.891C1347.11 134.891 1349.06 135.806 1350.39 137.636C1351.35 138.958 1351.83 140.407 1351.83 141.983C1351.83 142.593 1351.73 143.356 1351.53 144.271C1350.77 146.965 1349.37 149.151 1347.34 150.829C1345.1 152.659 1342.68 153.574 1340.09 153.574C1337.55 153.574 1335.59 152.633 1334.22 150.752C1333.3 149.532 1332.85 148.185 1332.85 146.711C1332.85 145.999 1332.95 145.186 1333.15 144.271Z" fill="#FF3509"/>
</g>
<defs>
<clipPath id="clip0_675_183">
<rect width="1446" height="197" fill="white"/>
</clipPath>
</defs>
</svg>
