<svg width="2205" height="301" viewBox="0 0 2205 301" fill="none" xmlns="http://www.w3.org/2000/svg">
<path d="M60.6166 135.708C65.6866 130.041 72.0241 125.344 79.6292 121.616C87.3833 117.739 95.8085 115.8 104.905 115.8C114.15 115.8 122.277 117.813 129.286 121.84C136.443 125.717 141.961 131.383 145.838 138.839C149.715 146.295 151.653 155.018 151.653 165.009C151.653 169.632 151.206 174.404 150.311 179.325C148.074 192 143.601 203.258 136.891 213.1C130.18 222.793 122.053 230.323 112.51 235.691C102.966 241.06 92.9752 243.744 82.537 243.744C73.4407 243.744 65.6866 241.88 59.2745 238.152C53.0115 234.424 48.2398 229.727 44.9592 224.06L31.5385 300.782H0L32.2095 117.813H63.7481L60.6166 135.708ZM118.325 179.325C118.773 176.342 118.996 173.658 118.996 171.272C118.996 162.474 116.461 155.615 111.391 150.694C106.321 145.773 99.8347 143.313 91.9314 143.313C86.2649 143.313 80.673 144.804 75.1556 147.786C69.6382 150.619 64.8664 154.795 60.8403 160.312C56.8141 165.83 54.1299 172.316 52.7879 179.772C52.1914 183.649 51.8932 186.482 51.8932 188.272C51.8932 197.07 54.4282 203.929 59.4982 208.85C64.7173 213.771 71.204 216.232 78.9581 216.232C84.7737 216.232 90.4402 214.74 95.9576 211.758C101.475 208.776 106.247 204.526 110.273 199.008C114.299 193.491 116.983 186.93 118.325 179.325Z" fill="#FAFAFA"/>
<path d="M200.356 139.734C205.724 132.278 211.987 126.462 219.144 122.287C226.302 118.112 234.056 116.024 242.407 116.024L236.591 148.905H228.315C219.07 148.905 211.614 150.918 205.947 154.944C200.43 158.97 196.404 165.83 193.869 175.522L182.238 241.731H150.699L172.62 117.813H204.158L200.356 139.734Z" fill="#FAFAFA"/>
<path d="M285.419 243.744C274.832 243.744 265.437 241.582 257.236 237.257C249.184 232.933 242.921 226.819 238.447 218.916C233.974 211.012 231.737 201.916 231.737 191.627C231.737 177.61 235.017 164.86 241.579 153.378C248.289 141.747 257.385 132.576 268.867 125.866C280.498 119.156 293.397 115.8 307.563 115.8C318.151 115.8 327.545 118.037 335.747 122.511C344.097 126.835 350.509 132.949 354.983 140.852C359.606 148.755 361.917 157.852 361.917 168.141C361.917 182.307 358.562 195.131 351.852 206.613C345.141 218.095 335.896 227.192 324.116 233.902C312.484 240.463 299.586 243.744 285.419 243.744ZM289.669 216.903C297.125 216.903 303.91 214.74 310.024 210.416C316.138 206.091 320.909 200.35 324.339 193.193C327.769 186.035 329.484 178.505 329.484 170.601C329.484 161.654 326.949 154.795 321.879 150.023C316.958 145.102 310.695 142.642 303.09 142.642C295.485 142.642 288.7 144.804 282.735 149.128C276.92 153.453 272.371 159.268 269.091 166.575C265.81 173.733 264.17 181.338 264.17 189.39C264.17 198.188 266.481 204.973 271.104 209.745C275.876 214.517 282.064 216.903 289.669 216.903Z" fill="#FAFAFA"/>
<path d="M404.795 203.482C404.646 204.377 404.571 205.57 404.571 207.061C404.571 210.043 405.391 212.205 407.032 213.547C408.821 214.74 411.729 215.337 415.755 215.337H430.518L425.821 241.731H405.913C383.546 241.731 372.362 232.411 372.362 213.771C372.362 210.192 372.66 206.688 373.256 203.258L383.769 143.536H369.007L373.48 117.813H388.466L393.835 87.1697H425.373L420.005 117.813H447.517L443.044 143.536H415.308L404.795 203.482Z" fill="#FAFAFA"/>
<path d="M492.408 243.744C481.821 243.744 472.426 241.582 464.225 237.257C456.173 232.933 449.91 226.819 445.436 218.916C440.962 211.012 438.726 201.916 438.726 191.627C438.726 177.61 442.006 164.86 448.568 153.378C455.278 141.747 464.374 132.576 475.856 125.866C487.487 119.156 500.386 115.8 514.552 115.8C525.14 115.8 534.534 118.037 542.736 122.511C551.086 126.835 557.498 132.949 561.972 140.852C566.595 148.755 568.906 157.852 568.906 168.141C568.906 182.307 565.551 195.131 558.84 206.613C552.13 218.095 542.885 227.192 531.104 233.902C519.473 240.463 506.574 243.744 492.408 243.744ZM496.658 216.903C504.114 216.903 510.899 214.74 517.013 210.416C523.127 206.091 527.898 200.35 531.328 193.193C534.758 186.035 536.473 178.505 536.473 170.601C536.473 161.654 533.938 154.795 528.868 150.023C523.947 145.102 517.684 142.642 510.079 142.642C502.474 142.642 495.689 144.804 489.724 149.128C483.909 153.453 479.36 159.268 476.08 166.575C472.799 173.733 471.159 181.338 471.159 189.39C471.159 198.188 473.47 204.973 478.093 209.745C482.865 214.517 489.053 216.903 496.658 216.903Z" fill="#FAFAFA"/>
<path d="M659.203 116.024C672.028 116.024 682.093 119.528 689.4 126.537C696.856 133.396 700.584 143.238 700.584 156.062C700.584 160.834 700.211 165.159 699.465 169.036L686.492 241.731H655.401L667.48 173.285C667.927 170.601 668.151 167.992 668.151 165.457C668.151 158.001 666.137 152.334 662.111 148.457C658.234 144.58 652.642 142.642 645.335 142.642C636.985 142.642 629.827 145.177 623.862 150.247C618.047 155.168 614.17 162.325 612.231 171.72L599.929 241.731H568.39L590.311 117.813H621.849L619.165 133.024C624.235 127.804 630.274 123.704 637.283 120.721C644.292 117.59 651.598 116.024 659.203 116.024Z" fill="#FAFAFA"/>
<path d="M917.297 76.2095L887.996 241.731H849.747L879.049 76.2095H917.297Z" fill="#FAFAFA"/>
<path d="M1049.7 116.919L1027.78 241.731H989.528L992.436 224.731C987.515 230.249 981.475 234.722 974.318 238.152C967.309 241.432 959.779 243.073 951.726 243.073C939.2 243.073 929.359 239.569 922.201 232.56C915.043 225.402 911.464 215.486 911.464 202.811C911.464 198.039 911.837 193.715 912.583 189.838L925.556 116.919H963.581L951.726 184.693C951.279 187.079 951.055 189.39 951.055 191.627C951.055 197.89 952.77 202.736 956.2 206.166C959.779 209.447 964.7 211.087 970.963 211.087C978.12 211.087 984.16 208.999 989.08 204.824C994.15 200.5 997.506 194.386 999.146 186.482L1011.45 116.919H1049.7Z" fill="#FAFAFA"/>
<path d="M1095.96 243.52C1086.12 243.52 1077.25 241.954 1069.34 238.823C1061.59 235.691 1055.47 231.367 1051 225.85C1046.53 220.183 1044.29 213.696 1044.29 206.39C1044.29 205.346 1044.44 203.482 1044.74 200.798H1081.64C1081.35 205.42 1082.69 209.148 1085.67 211.982C1088.8 214.666 1093.2 216.008 1098.87 216.008C1103.64 216.008 1107.59 215.113 1110.72 213.324C1113.85 211.534 1115.42 208.999 1115.42 205.719C1115.42 202.587 1113.7 200.127 1110.28 198.337C1106.99 196.399 1101.48 194.087 1093.72 191.403C1085.67 188.719 1078.89 186.11 1073.37 183.575C1068 180.89 1063.38 177.088 1059.5 172.167C1055.62 167.246 1053.68 161.058 1053.68 153.602C1053.68 146.295 1055.85 139.734 1060.17 133.918C1064.5 127.954 1070.54 123.331 1078.29 120.05C1086.19 116.77 1095.29 115.129 1105.58 115.129C1115.87 115.129 1124.81 116.844 1132.42 120.274C1140.02 123.555 1145.91 128.177 1150.09 134.142C1154.27 140.107 1156.35 146.817 1156.35 154.273L1156.13 157.628H1121.46C1121.76 153.154 1120.42 149.576 1117.43 146.892C1114.45 144.207 1110.2 142.865 1104.68 142.865C1100.36 142.865 1096.78 143.76 1093.95 145.549C1091.26 147.339 1089.92 149.799 1089.92 152.931C1089.92 156.211 1091.71 158.97 1095.29 161.207C1099.02 163.295 1104.76 165.68 1112.51 168.365C1120.56 171.049 1127.2 173.733 1132.42 176.417C1137.79 178.952 1142.34 182.605 1146.06 187.377C1149.94 192 1151.88 197.815 1151.88 204.824C1151.88 212.876 1149.42 219.81 1144.5 225.626C1139.73 231.442 1133.09 235.915 1124.59 239.047C1116.24 242.029 1106.7 243.52 1095.96 243.52Z" fill="#FAFAFA"/>
<path fill-rule="evenodd" clip-rule="evenodd" d="M807.892 115.602C806.263 115.459 804.591 115.387 802.877 115.387C794.079 115.387 786.027 117.176 778.72 120.755C771.562 124.334 765.598 129.031 760.826 134.847L763.957 117.176H725.709L697.158 279.42H735.437L745.168 224.541C748.002 230.208 752.401 234.831 758.365 238.409C764.33 241.988 771.637 243.778 780.286 243.778C790.575 243.778 800.342 241.168 809.588 235.949C818.833 230.581 826.736 223.05 833.297 213.358C839.858 203.516 844.257 192.183 846.494 179.359C847.389 173.99 847.836 168.995 847.836 164.372C847.836 159.497 847.399 154.949 846.524 150.73C843.001 152.283 839.106 153.146 835.009 153.146C819.236 153.146 806.45 140.359 806.45 124.586C806.45 121.448 806.956 118.427 807.892 115.602ZM807.798 179.359C808.245 176.824 808.469 174.512 808.469 172.425C808.469 164.969 806.307 159.153 801.982 154.978C797.807 150.802 792.439 148.715 785.878 148.715C778.273 148.715 771.339 151.473 765.076 156.991C758.813 162.508 754.787 170.039 752.997 179.582C752.55 182.266 752.326 184.727 752.326 186.964C752.326 194.27 754.414 200.011 758.589 204.187C762.764 208.362 768.133 210.45 774.694 210.45C782.299 210.45 789.233 207.691 795.496 202.174C801.908 196.507 806.009 188.902 807.798 179.359Z" fill="#FAFAFA"/>
<circle cx="835.005" cy="124.587" r="21.9664" fill="#FF5E5E"/>
<path d="M1268.41 178.598L1298.61 240.78H1263.27L1244.7 202.531L1215.18 240.78H1181.62L1233.07 178.598L1203.1 116.863H1238.44L1257 155.112L1286.53 116.863H1320.08L1268.41 178.598Z" fill="#FF5E5E"/>
<path d="M1382.58 242.425C1366.27 242.425 1355.43 233.937 1350.06 216.962C1348.59 212.332 1347.86 207.114 1347.86 201.309C1347.86 194.768 1348.78 187.53 1350.61 179.593C1354.29 164.087 1359.8 151.631 1367.15 142.224C1380.38 125.248 1395.22 116.76 1411.68 116.76C1428.29 116.76 1439.13 125.248 1444.2 142.224C1445.6 146.927 1446.29 152.145 1446.29 157.877C1446.29 164.418 1445.38 171.656 1443.54 179.593L1433.95 221.04C1433.21 224.274 1434.61 225.891 1438.14 225.891H1446.62L1446.4 226.993L1434.06 244.63C1418.7 244.63 1411.02 239.118 1411.02 228.095C1411.02 225.964 1411.31 223.612 1411.9 221.04L1421.49 179.593C1423.55 170.48 1424.58 163.095 1424.58 157.436C1424.58 154.644 1424.32 152.182 1423.81 150.051C1421.09 140.35 1415.58 135.5 1407.27 135.5C1398.97 135.5 1391.25 140.35 1384.12 150.051C1379.64 156.15 1375.82 165.998 1372.66 179.593C1370.6 188.485 1369.57 195.76 1369.57 201.419C1369.57 204.432 1369.87 207.004 1370.45 209.135C1373.1 218.762 1378.54 223.612 1386.77 223.686H1395.26L1394.93 224.788L1382.58 242.425ZM1459.26 244.63L1497.4 79.2815L1520.66 69.3606H1521.76L1500.59 161.184L1553.62 114.556H1554.72L1572.03 123.705L1531.46 157.326C1541.67 158.722 1549.46 162.139 1554.83 167.578C1560.34 173.163 1563.1 179.519 1563.1 186.648C1563.1 188.999 1562.8 191.425 1562.21 193.923C1559.57 205.167 1550.27 214.353 1534.33 221.481H1561.55L1561.33 222.584L1548.99 240.221H1497.4L1497.62 239.118L1509.96 221.481C1516.5 219.571 1522.57 216.521 1528.15 212.332C1534.47 207.555 1538.48 201.419 1540.17 193.923C1540.54 192.306 1540.72 190.8 1540.72 189.404C1540.72 185.509 1539.32 182.165 1536.53 179.372C1533.59 176.433 1528.45 174.963 1521.1 174.963C1514.41 174.963 1508.35 176.874 1502.91 180.695C1497.4 184.59 1493.69 190.763 1491.78 199.214L1483.62 234.709L1460.36 244.63H1459.26ZM1619.49 242.425C1603.18 242.425 1592.34 233.937 1586.97 216.962C1585.5 212.332 1584.77 207.114 1584.77 201.309C1584.77 194.768 1585.69 187.53 1587.52 179.593C1591.2 164.087 1596.71 151.631 1604.06 142.224C1617.29 125.248 1632.13 116.76 1648.59 116.76C1665.2 116.76 1676.04 125.248 1681.11 142.224C1682.51 146.927 1683.21 152.145 1683.21 157.877C1683.21 164.418 1682.29 171.656 1680.45 179.593L1670.86 221.04C1670.12 224.274 1671.52 225.891 1675.05 225.891H1683.54L1683.32 226.993L1670.97 244.63C1655.61 244.63 1647.93 239.118 1647.93 228.095C1647.93 225.964 1648.23 223.612 1648.81 221.04L1658.4 179.593C1660.46 170.48 1661.49 163.095 1661.49 157.436C1661.49 154.644 1661.23 152.182 1660.72 150.051C1658 140.35 1652.49 135.5 1644.18 135.5C1635.88 135.5 1628.16 140.35 1621.03 150.051C1616.55 156.15 1612.73 165.998 1609.57 179.593C1607.51 188.485 1606.48 195.76 1606.48 201.419C1606.48 204.432 1606.78 207.004 1607.37 209.135C1610.01 218.762 1615.45 223.612 1623.68 223.686H1632.17L1631.84 224.788L1619.49 242.425ZM1732.21 244.63C1716.86 244.63 1709.18 239.118 1709.18 228.095C1709.18 225.964 1709.47 223.612 1710.06 221.04L1729.35 137.705H1701.02L1701.24 136.602L1713.59 118.965H1733.65L1742.8 79.2815L1766.06 69.3606H1767.16L1755.69 118.965H1784.02L1783.8 120.067L1771.46 137.705H1751.4L1732.1 221.04C1731.37 224.274 1732.77 225.891 1736.29 225.891H1744.78L1744.56 226.993L1732.21 244.63ZM1765.46 217.292C1765.46 217.292 1771.89 214.573 1784.75 209.135H1785.85C1788.5 218.836 1794.01 223.686 1802.39 223.686C1810.4 223.686 1817.23 221.04 1822.89 215.749C1827.45 211.487 1830.35 206.747 1831.6 201.529C1831.97 199.986 1832.15 198.516 1832.15 197.12C1832.15 193.739 1831.05 190.947 1828.84 188.742C1825.61 185.509 1820.39 183.304 1813.19 182.128C1804.01 180.659 1797.02 177.866 1792.25 173.751C1787.4 169.562 1784.97 164.087 1784.97 157.326C1784.97 154.901 1785.3 152.219 1785.96 149.279C1788.24 139.211 1794.89 130.76 1805.92 123.926C1813.63 119.149 1821.79 116.76 1830.39 116.76C1844.86 116.76 1853.76 123.742 1857.06 137.705L1837.77 145.862H1836.67C1834.91 138.954 1831.34 135.5 1825.98 135.5C1821.57 135.5 1817.75 136.602 1814.51 138.807C1810.69 141.379 1808.19 145.017 1807.02 149.72C1806.72 150.896 1806.58 151.961 1806.58 152.917C1806.58 155.856 1807.79 158.024 1810.22 159.42C1813.6 161.405 1818.92 163.205 1826.2 164.822C1835.38 166.806 1842.37 170.076 1847.14 174.632C1851.77 179.042 1854.09 184.994 1854.09 192.49C1854.09 195.577 1853.68 198.994 1852.88 202.742C1850.82 212.222 1844.5 221.334 1833.92 230.079C1823.92 238.31 1811.94 242.425 1797.98 242.425C1781.52 242.425 1770.68 234.048 1765.46 217.292ZM1984.78 114.556L1969.79 179.593C1966.26 194.952 1960.75 207.408 1953.25 216.962C1939.95 233.937 1925.14 242.425 1908.83 242.425C1892 242.425 1881.16 233.937 1876.31 216.962C1874.91 212.038 1874.22 206.673 1874.22 200.868C1874.22 194.254 1875.1 187.162 1876.86 179.593C1881.05 161.735 1891.52 147.773 1908.28 137.705H1881.05L1881.27 136.602L1893.62 118.965H1945.21L1944.99 120.067L1932.64 137.705C1922.35 143.878 1914.89 149.904 1910.26 155.783C1904.75 162.838 1900.97 170.774 1898.91 179.593C1896.85 188.485 1895.82 195.76 1895.82 201.419C1895.82 204.432 1896.12 207.004 1896.7 209.135C1899.35 218.836 1904.86 223.686 1913.24 223.686C1921.54 223.686 1929.26 218.836 1936.39 209.135C1940.8 203.109 1944.58 193.262 1947.74 179.593L1960.42 124.477L1983.68 114.556H1984.78ZM1985.51 244.63L2023.65 79.2815L2046.91 69.3606H2048.01L2026.84 161.184L2079.87 114.556H2080.97L2098.27 123.705L2057.71 157.326C2067.92 158.722 2075.71 162.139 2081.08 167.578C2086.59 173.163 2089.35 179.519 2089.35 186.648C2089.35 188.999 2089.05 191.425 2088.46 193.923C2085.82 205.167 2076.52 214.353 2060.57 221.481H2087.8L2087.58 222.584L2075.24 240.221H2023.65L2023.87 239.118L2036.21 221.481C2042.75 219.571 2048.82 216.521 2054.4 212.332C2060.72 207.555 2064.73 201.419 2066.42 193.923C2066.78 192.306 2066.97 190.8 2066.97 189.404C2066.97 185.509 2065.57 182.165 2062.78 179.372C2059.84 176.433 2054.7 174.963 2047.35 174.963C2040.66 174.963 2034.6 176.874 2029.16 180.695C2023.65 184.59 2019.94 190.763 2018.03 199.214L2009.87 234.709L1986.61 244.63H1985.51ZM2138.8 85.1238C2139.68 81.3759 2141.7 78.1792 2144.86 75.5336C2148.02 72.888 2151.47 71.5652 2155.22 71.5652C2158.97 71.5652 2161.8 72.888 2163.71 75.5336C2165.1 77.4443 2165.8 79.5387 2165.8 81.8168C2165.8 82.6987 2165.66 83.801 2165.36 85.1238C2164.26 89.0187 2162.24 92.1787 2159.3 94.6038C2156.07 97.2494 2152.57 98.5722 2148.83 98.5722C2145.15 98.5722 2142.32 97.2126 2140.34 94.4936C2139.02 92.7298 2138.35 90.7824 2138.35 88.6512C2138.35 87.6224 2138.5 86.4466 2138.8 85.1238ZM2131.85 244.63C2116.49 244.63 2108.81 239.118 2108.81 228.095C2108.81 225.964 2109.11 223.612 2109.69 221.04L2131.96 124.477L2155.22 114.556H2156.32L2131.74 221.04C2131.01 224.274 2132.4 225.891 2135.93 225.891H2144.42L2144.2 226.993L2131.85 244.63Z" fill="#F3F3F3"/>
<path d="M2157.05 240.221V220.919H2176.36V240.221H2157.05Z" fill="#FF3509"/>
</svg>
