<svg width="2466" height="337" viewBox="0 0 2466 337" fill="none" xmlns="http://www.w3.org/2000/svg">
<path d="M67.9394 151.957C73.6088 145.621 80.6956 140.368 89.1998 136.2C97.8707 131.864 107.292 129.696 117.464 129.696C127.802 129.696 136.89 131.948 144.727 136.45C152.731 140.785 158.901 147.122 163.236 155.459C167.571 163.796 169.739 173.551 169.739 184.723C169.739 189.893 169.239 195.228 168.238 200.731C165.737 214.905 160.735 227.494 153.231 238.5C145.727 249.338 136.64 257.759 125.968 263.762C115.296 269.765 104.124 272.766 92.4514 272.766C82.2797 272.766 73.6088 270.682 66.4387 266.513C59.4352 262.345 54.0993 257.092 50.4308 250.756L35.4235 336.548H0.15625L36.1739 131.948H71.4411L67.9394 151.957ZM132.471 200.731C132.971 197.396 133.221 194.395 133.221 191.727C133.221 181.889 130.387 174.218 124.717 168.716C119.048 163.213 111.794 160.461 102.957 160.461C96.6201 160.461 90.367 162.129 84.1973 165.464C78.0276 168.632 72.6917 173.301 68.1895 179.471C63.6873 185.64 60.6858 192.894 59.1851 201.231C58.5181 205.567 58.1846 208.735 58.1846 210.736C58.1846 220.574 61.0193 228.245 66.6888 233.747C72.525 239.25 79.7785 242.001 88.4494 242.001C94.9526 242.001 101.289 240.334 107.459 236.999C113.628 233.664 118.964 228.912 123.467 222.742C127.969 216.572 130.97 209.235 132.471 200.731Z" fill="#FAFAFA"/>
<path d="M224.199 156.46C230.202 148.122 237.206 141.619 245.21 136.95C253.214 132.281 261.884 129.947 271.222 129.947L264.719 166.715H255.465C245.126 166.715 236.789 168.966 230.452 173.468C224.283 177.97 219.781 185.64 216.946 196.479L203.939 270.515H168.672L193.184 131.948H228.451L224.199 156.46Z" fill="#FAFAFA"/>
<path d="M319.32 272.766C307.481 272.766 296.976 270.349 287.805 265.513C278.8 260.677 271.797 253.84 266.794 245.003C261.792 236.165 259.291 225.994 259.291 214.488C259.291 198.814 262.959 184.557 270.296 171.717C277.8 158.711 287.971 148.456 300.811 140.952C313.817 133.448 328.241 129.696 344.082 129.696C355.921 129.696 366.426 132.198 375.598 137.2C384.935 142.036 392.106 148.872 397.108 157.71C402.277 166.548 404.862 176.719 404.862 188.225C404.862 204.066 401.11 218.406 393.606 231.246C386.103 244.086 375.764 254.257 362.591 261.761C349.585 269.098 335.161 272.766 319.32 272.766ZM324.072 242.752C332.41 242.752 339.997 240.334 346.834 235.498C353.67 230.662 359.006 224.243 362.841 216.239C366.677 208.235 368.594 199.814 368.594 190.976C368.594 180.972 365.759 173.301 360.09 167.965C354.587 162.462 347.584 159.711 339.08 159.711C330.576 159.711 322.989 162.129 316.319 166.965C309.815 171.8 304.73 178.304 301.061 186.474C297.393 194.478 295.558 202.982 295.558 211.987C295.558 221.825 298.143 229.412 303.312 234.748C308.648 240.084 315.568 242.752 324.072 242.752Z" fill="#FAFAFA"/>
<path d="M452.809 227.744C452.642 228.745 452.559 230.079 452.559 231.746C452.559 235.081 453.476 237.499 455.31 239C457.311 240.334 460.563 241.001 465.065 241.001H481.573L476.321 270.515H454.06C429.048 270.515 416.541 260.094 416.541 239.25C416.541 235.248 416.875 231.329 417.542 227.494L429.298 160.712H412.79L417.792 131.948H434.55L440.553 97.6808H475.82L469.817 131.948H500.582L495.58 160.712H464.565L452.809 227.744Z" fill="#FAFAFA"/>
<path d="M550.781 272.766C538.942 272.766 528.437 270.349 519.265 265.513C510.261 260.677 503.258 253.84 498.255 245.003C493.253 236.165 490.751 225.994 490.751 214.488C490.751 198.814 494.42 184.557 501.757 171.717C509.261 158.711 519.432 148.456 532.272 140.952C545.278 133.448 559.702 129.696 575.543 129.696C587.382 129.696 597.887 132.198 607.058 137.2C616.396 142.036 623.566 148.872 628.569 157.71C633.738 166.548 636.323 176.719 636.323 188.225C636.323 204.066 632.571 218.406 625.067 231.246C617.563 244.086 607.225 254.257 594.052 261.761C581.046 269.098 566.622 272.766 550.781 272.766ZM555.533 242.752C563.871 242.752 571.458 240.334 578.294 235.498C585.131 230.662 590.467 224.243 594.302 216.239C598.137 208.235 600.055 199.814 600.055 190.976C600.055 180.972 597.22 173.301 591.551 167.965C586.048 162.462 579.045 159.711 570.541 159.711C562.036 159.711 554.449 162.129 547.779 166.965C541.276 171.8 536.19 178.304 532.522 186.474C528.853 194.478 527.019 202.982 527.019 211.987C527.019 221.825 529.604 229.412 534.773 234.748C540.109 240.084 547.029 242.752 555.533 242.752Z" fill="#FAFAFA"/>
<path d="M737.296 129.947C751.636 129.947 762.892 133.865 771.062 141.702C779.4 149.373 783.568 160.378 783.568 174.718C783.568 180.054 783.152 184.89 782.318 189.226L767.811 270.515H733.044L746.55 193.978C747.051 190.976 747.301 188.058 747.301 185.224C747.301 176.886 745.05 170.55 740.547 166.214C736.212 161.879 729.959 159.711 721.788 159.711C712.45 159.711 704.446 162.546 697.776 168.215C691.273 173.718 686.938 181.722 684.77 192.227L671.013 270.515H635.746L660.258 131.948H695.525L692.524 148.956C698.193 143.12 704.947 138.534 712.784 135.199C720.621 131.697 728.792 129.947 737.296 129.947Z" fill="#FAFAFA"/>
<path d="M1025.9 85.4248L993.138 270.515H950.367L983.133 85.4248H1025.9Z" fill="#FAFAFA"/>
<path d="M1173.96 130.947L1149.44 270.515H1106.67L1109.93 251.506C1104.42 257.676 1097.67 262.678 1089.67 266.513C1081.83 270.182 1073.41 272.016 1064.4 272.016C1050.4 272.016 1039.39 268.097 1031.39 260.26C1023.38 252.256 1019.38 241.168 1019.38 226.994C1019.38 221.658 1019.8 216.822 1020.63 212.487L1035.14 130.947H1077.66L1064.4 206.734C1063.9 209.402 1063.65 211.987 1063.65 214.488C1063.65 221.491 1065.57 226.911 1069.41 230.746C1073.41 234.414 1078.91 236.249 1085.91 236.249C1093.92 236.249 1100.67 233.914 1106.17 229.245C1111.84 224.409 1115.59 217.573 1117.43 208.735L1131.19 130.947H1173.96Z" fill="#FAFAFA"/>
<path d="M1225.69 272.516C1214.68 272.516 1204.76 270.765 1195.92 267.264C1187.25 263.762 1180.42 258.926 1175.41 252.757C1170.41 246.42 1167.91 239.167 1167.91 230.996C1167.91 229.829 1168.08 227.744 1168.41 224.743H1209.68C1209.35 229.912 1210.85 234.081 1214.18 237.249C1217.68 240.25 1222.6 241.751 1228.94 241.751C1234.28 241.751 1238.7 240.751 1242.2 238.75C1245.7 236.749 1247.45 233.914 1247.45 230.246C1247.45 226.744 1245.53 223.993 1241.7 221.992C1238.03 219.824 1231.86 217.239 1223.19 214.238C1214.18 211.236 1206.6 208.318 1200.43 205.483C1194.42 202.482 1189.25 198.23 1184.92 192.727C1180.58 187.225 1178.42 180.305 1178.42 171.967C1178.42 163.796 1180.83 156.46 1185.67 149.956C1190.51 143.286 1197.26 138.117 1205.93 134.449C1214.77 130.78 1224.94 128.946 1236.44 128.946C1247.95 128.946 1257.95 130.864 1266.46 134.699C1274.96 138.367 1281.55 143.537 1286.22 150.206C1290.89 156.876 1293.22 164.38 1293.22 172.717L1292.97 176.469H1254.2C1254.54 171.467 1253.04 167.465 1249.7 164.463C1246.37 161.462 1241.61 159.961 1235.44 159.961C1230.61 159.961 1226.61 160.962 1223.44 162.963C1220.44 164.964 1218.94 167.715 1218.94 171.217C1218.94 174.885 1220.94 177.97 1224.94 180.471C1229.11 182.806 1235.53 185.474 1244.2 188.475C1253.2 191.477 1260.62 194.478 1266.46 197.48C1272.46 200.314 1277.55 204.4 1281.72 209.736C1286.05 214.905 1288.22 221.408 1288.22 229.245C1288.22 238.25 1285.47 246.003 1279.97 252.506C1274.63 259.01 1267.21 264.012 1257.7 267.514C1248.37 270.849 1237.69 272.516 1225.69 272.516Z" fill="#FAFAFA"/>
<path fill-rule="evenodd" clip-rule="evenodd" d="M903.563 129.475C901.742 129.314 899.872 129.234 897.956 129.234C888.118 129.234 879.113 131.235 870.943 135.237C862.939 139.239 856.269 144.491 850.933 150.995L854.435 131.235H811.664L779.738 312.661H822.542L833.424 251.294C836.592 257.63 841.512 262.799 848.181 266.801C854.851 270.803 863.022 272.804 872.693 272.804C884.199 272.804 895.121 269.886 905.459 264.05C915.798 258.047 924.635 249.626 931.972 238.788C939.309 227.782 944.228 215.109 946.73 200.769C947.73 194.766 948.23 189.18 948.23 184.011C948.23 178.559 947.741 173.474 946.762 168.755C942.824 170.493 938.468 171.457 933.887 171.457C916.249 171.457 901.951 157.159 901.951 139.521C901.951 136.011 902.517 132.634 903.563 129.475ZM903.458 200.769C903.959 197.934 904.209 195.35 904.209 193.015C904.209 184.678 901.791 178.175 896.955 173.506C892.286 168.837 886.283 166.502 878.947 166.502C870.442 166.502 862.689 169.587 855.685 175.757C848.682 181.926 844.18 190.347 842.179 201.019C841.678 204.021 841.428 206.772 841.428 209.273C841.428 217.444 843.763 223.864 848.432 228.533C853.101 233.202 859.103 235.536 866.44 235.536C874.945 235.536 882.698 232.451 889.702 226.281C896.872 219.945 901.458 211.441 903.458 200.769Z" fill="#FAFAFA"/>
<circle cx="933.888" cy="139.521" r="24.5635" fill="#FF5E5E"/>
<path d="M1418.52 199.919L1452.29 269.452H1412.77L1392.01 226.682L1358.99 269.452H1321.48L1379 199.919L1345.49 130.885H1385.01L1405.77 173.656L1438.78 130.885H1476.3L1418.52 199.919Z" fill="#FF5E5E"/>
<path d="M1546.19 271.918C1527.95 271.918 1515.83 262.427 1509.83 243.444C1508.19 238.267 1507.36 232.432 1507.36 225.94C1507.36 218.626 1508.39 210.532 1510.45 201.657C1514.55 184.318 1520.72 170.389 1528.93 159.87C1543.73 140.887 1560.33 131.396 1578.73 131.396C1597.31 131.396 1609.43 140.887 1615.1 159.87C1616.66 165.129 1617.44 170.964 1617.44 177.374C1617.44 184.688 1616.41 192.782 1614.36 201.657L1603.63 248.005C1602.81 251.62 1604.37 253.428 1608.32 253.428H1617.81L1617.56 254.661L1603.76 274.383C1586.58 274.383 1577.99 268.22 1577.99 255.894C1577.99 253.51 1578.32 250.881 1578.98 248.005L1589.7 201.657C1592.01 191.467 1593.16 183.208 1593.16 176.881C1593.16 173.758 1592.87 171.005 1592.29 168.622C1589.25 157.775 1583.09 152.351 1573.8 152.351C1564.52 152.351 1555.89 157.775 1547.92 168.622C1542.9 175.443 1538.63 186.454 1535.1 201.657C1532.8 211.6 1531.65 219.736 1531.65 226.063C1531.65 229.433 1531.98 232.309 1532.63 234.692C1535.59 245.457 1541.67 250.881 1550.88 250.963H1560.37L1560 252.196L1546.19 271.918ZM1631.93 274.383L1674.58 89.486L1700.59 78.3921H1701.83L1678.16 181.072L1737.45 128.931H1738.68L1758.03 139.162L1712.67 176.757C1724.1 178.319 1732.81 182.14 1738.81 188.221C1744.97 194.467 1748.05 201.575 1748.05 209.546C1748.05 212.176 1747.72 214.887 1747.06 217.681C1744.11 230.254 1733.71 240.526 1715.88 248.498H1746.32L1746.08 249.73L1732.27 269.453H1674.58L1674.83 268.22L1688.64 248.498C1695.95 246.361 1702.73 242.951 1708.98 238.267C1716.04 232.925 1720.52 226.063 1722.41 217.681C1722.82 215.874 1723.03 214.189 1723.03 212.628C1723.03 208.272 1721.47 204.533 1718.34 201.41C1715.06 198.123 1709.3 196.48 1701.09 196.48C1693.61 196.48 1686.83 198.616 1680.75 202.89C1674.58 207.245 1670.43 214.148 1668.3 223.598L1659.18 263.289L1633.17 274.383H1631.93ZM1811.11 271.918C1792.87 271.918 1780.75 262.427 1774.75 243.444C1773.11 238.267 1772.28 232.432 1772.28 225.94C1772.28 218.626 1773.31 210.532 1775.37 201.657C1779.47 184.318 1785.64 170.389 1793.86 159.87C1808.65 140.887 1825.25 131.396 1843.65 131.396C1862.23 131.396 1874.35 140.887 1880.02 159.87C1881.58 165.129 1882.36 170.964 1882.36 177.374C1882.36 184.688 1881.33 192.782 1879.28 201.657L1868.55 248.005C1867.73 251.62 1869.29 253.428 1873.24 253.428H1882.73L1882.48 254.661L1868.68 274.383C1851.5 274.383 1842.92 268.22 1842.92 255.894C1842.92 253.51 1843.24 250.881 1843.9 248.005L1854.63 201.657C1856.93 191.467 1858.08 183.208 1858.08 176.881C1858.08 173.758 1857.79 171.005 1857.21 168.622C1854.17 157.775 1848.01 152.351 1838.72 152.351C1829.44 152.351 1820.81 157.775 1812.84 168.622C1807.83 175.443 1803.55 186.454 1800.02 201.657C1797.72 211.6 1796.57 219.736 1796.57 226.063C1796.57 229.433 1796.9 232.309 1797.55 234.692C1800.51 245.457 1806.59 250.881 1815.8 250.963H1825.29L1824.92 252.196L1811.11 271.918ZM1937.16 274.383C1919.99 274.383 1911.4 268.22 1911.4 255.894C1911.4 253.51 1911.73 250.881 1912.39 248.005L1933.96 154.816H1902.28L1902.53 153.584L1916.33 133.861H1938.77L1949 89.486L1975.01 78.3921H1976.24L1963.42 133.861H1995.1L1994.85 135.094L1981.05 154.816H1958.61L1937.04 248.005C1936.22 251.62 1937.78 253.428 1941.72 253.428H1951.22L1950.97 254.661L1937.16 274.383ZM1974.34 243.814C1974.34 243.814 1981.53 240.773 1995.91 234.692H1997.14C2000.1 245.539 2006.27 250.963 2015.63 250.963C2024.59 250.963 2032.23 248.005 2038.56 242.088C2043.66 237.322 2046.9 232.021 2048.3 226.187C2048.71 224.461 2048.92 222.817 2048.92 221.256C2048.92 217.476 2047.68 214.353 2045.22 211.888C2041.6 208.272 2035.77 205.807 2027.71 204.492C2017.44 202.849 2009.63 199.726 2004.29 195.124C1998.87 190.44 1996.16 184.318 1996.16 176.757C1996.16 174.046 1996.53 171.046 1997.27 167.759C1999.81 156.501 2007.25 147.051 2019.58 139.408C2028.21 134.067 2037.33 131.396 2046.94 131.396C2063.13 131.396 2073.08 139.203 2076.77 154.816L2055.2 163.938H2053.97C2052 156.213 2048.01 152.351 2042.01 152.351C2037.08 152.351 2032.81 153.584 2029.19 156.049C2024.92 158.925 2022.13 162.993 2020.81 168.252C2020.48 169.567 2020.32 170.759 2020.32 171.827C2020.32 175.114 2021.67 177.538 2024.39 179.1C2028.17 181.318 2034.12 183.332 2042.26 185.139C2052.53 187.358 2060.34 191.015 2065.68 196.11C2070.86 201.041 2073.44 207.697 2073.44 216.079C2073.44 219.53 2072.99 223.352 2072.09 227.543C2069.79 238.143 2062.72 248.333 2050.89 258.112C2039.71 267.316 2026.32 271.918 2010.7 271.918C1992.3 271.918 1980.17 262.55 1974.34 243.814ZM2219.59 128.931L2202.82 201.657C2198.88 218.832 2192.72 232.761 2184.33 243.444C2169.46 262.427 2152.9 271.918 2134.66 271.918C2115.84 271.918 2103.72 262.427 2098.3 243.444C2096.73 237.938 2095.95 231.939 2095.95 225.447C2095.95 218.051 2096.94 210.121 2098.91 201.657C2103.6 181.688 2115.31 166.075 2134.04 154.816H2103.6L2103.84 153.584L2117.65 133.861H2175.34L2175.09 135.094L2161.28 154.816C2149.78 161.719 2141.44 168.458 2136.26 175.032C2130.1 182.921 2125.87 191.796 2123.56 201.657C2121.26 211.6 2120.11 219.736 2120.11 226.063C2120.11 229.433 2120.44 232.309 2121.1 234.692C2124.06 245.539 2130.22 250.963 2139.59 250.963C2148.87 250.963 2157.5 245.539 2165.47 234.692C2170.41 227.953 2174.64 216.942 2178.17 201.657L2192.35 140.025L2218.36 128.931H2219.59ZM2220.4 274.383L2263.05 89.486L2289.06 78.3921H2290.29L2266.63 181.072L2325.92 128.931H2327.15L2346.5 139.162L2301.14 176.757C2312.56 178.319 2321.27 182.14 2327.27 188.221C2333.44 194.467 2336.52 201.575 2336.52 209.546C2336.52 212.176 2336.19 214.887 2335.53 217.681C2332.57 230.254 2322.18 240.526 2304.34 248.498H2334.79L2334.54 249.73L2320.74 269.453H2263.05L2263.3 268.22L2277.1 248.498C2284.42 246.361 2291.2 242.951 2297.44 238.267C2304.51 232.925 2308.99 226.063 2310.88 217.681C2311.29 215.874 2311.49 214.189 2311.49 212.628C2311.49 208.272 2309.93 204.533 2306.81 201.41C2303.52 198.123 2297.77 196.48 2289.55 196.48C2282.07 196.48 2275.3 198.616 2269.21 202.89C2263.05 207.245 2258.9 214.148 2256.76 223.598L2247.64 263.289L2221.63 274.383H2220.4ZM2391.81 96.019C2392.8 91.828 2395.06 88.2533 2398.59 85.295C2402.13 82.3366 2405.99 80.8574 2410.18 80.8574C2414.37 80.8574 2417.53 82.3366 2419.67 85.295C2421.23 87.4316 2422.01 89.7736 2422.01 92.3211C2422.01 93.3072 2421.85 94.5398 2421.52 96.019C2420.29 100.374 2418.03 103.908 2414.74 106.62C2411.12 109.578 2407.22 111.057 2403.03 111.057C2398.92 111.057 2395.76 109.537 2393.54 106.497C2392.06 104.524 2391.32 102.347 2391.32 99.9635C2391.32 98.813 2391.48 97.4982 2391.81 96.019ZM2384.05 274.383C2366.87 274.383 2358.29 268.22 2358.29 255.894C2358.29 253.51 2358.61 250.881 2359.27 248.005L2384.17 140.025L2410.18 128.931H2411.41L2383.92 248.005C2383.1 251.62 2384.66 253.428 2388.61 253.428H2398.1L2397.85 254.661L2384.05 274.383Z" fill="#F3F3F3"/>
<path d="M2412.23 269.453V247.868H2433.81V269.453H2412.23Z" fill="#FF3509"/>
</svg>
